SplineFontDB: 3.0
FontName: FdSymbolA-Bold
FullName: FdSymbolA-Bold
FamilyName: FdSymbolA
Weight: Bold
Copyright: Copyright (c) 2012, Michael Ummels. This Font Software is licensed under the SIL Open Font License, Version 1.1.
Version: 1.008
ItalicAngle: 0
UnderlinePosition: -100
UnderlineWidth: 50
Ascent: 800
Descent: 200
InvalidEm: 0
LayerCount: 2
Layer: 0 0 "Back" 1
Layer: 1 0 "Fore" 0
UniqueID: 4606793
OS2Version: 0
OS2_WeightWidthSlopeOnly: 0
OS2_UseTypoMetrics: 0
CreationTime: 1431873380
ModificationTime: 1431873380
OS2TypoAscent: 0
OS2TypoAOffset: 1
OS2TypoDescent: 0
OS2TypoDOffset: 1
OS2TypoLinegap: 0
OS2WinAscent: 0
OS2WinAOffset: 1
OS2WinDescent: 0
OS2WinDOffset: 1
HheadAscent: 0
HheadAOffset: 1
HheadDescent: 0
HheadDOffset: 1
OS2Vendor: 'PfEd'
DEI: 91125
Encoding: Custom
UnicodeInterp: none
NameList: AGL For New Fonts
DisplaySize: -48
AntiAlias: 1
FitToEm: 0
BeginPrivate: 2
BlueValues 31 [-10 0 546 556 707 717 754 764]
OtherBlues 11 [-230 -220]
EndPrivate
BeginChars: 256 204

StartChar: dotmath
Encoding: 0 8901 0
Width: 392
Flags: W
HStem: 169 212<154.05 237.95>
VStem: 90 212<233.05 316.95>
LayerCount: 2
Back
Fore
SplineSet
302 275 m 0
 302 254 279 230 260 211 c 0
 241 192 217 169 196 169 c 0
 175 169 151 192 132 211 c 0
 113 230 90 254 90 275 c 0
 90 296 113 320 132 339 c 0
 151 358 175 381 196 381 c 0
 217 381 241 358 260 339 c 0
 279 320 302 296 302 275 c 0
EndSplineSet
EndChar

StartChar: sym000
Encoding: 1 -1 1
Width: 797
Flags: W
HStem: 169 212<154.05 237.95 558.756 642.198>
VStem: 90 212<233.05 316.95> 494 212<233.05 316.95>
LayerCount: 2
Back
Fore
SplineSet
302 275 m 0
 302 254 279 230 260 211 c 0
 241 192 217 169 196 169 c 0
 175 169 151 192 132 211 c 0
 113 230 90 254 90 275 c 0
 90 296 113 320 132 339 c 0
 151 358 175 381 196 381 c 0
 217 381 241 358 260 339 c 0
 279 320 302 296 302 275 c 0
706 275 m 0
 706 254 683 230 664 211 c 0
 645 192 622 169 600 169 c 0
 579 169 556 192 537 211 c 0
 518 230 494 254 494 275 c 0
 494 296 518 320 537 339 c 0
 556 358 579 381 600 381 c 0
 622 381 645 358 664 339 c 0
 683 320 706 296 706 275 c 0
EndSplineSet
EndChar

StartChar: uni2236
Encoding: 2 8758 2
Width: 392
Flags: W
HStem: -33 212<154.05 237.95> 371 212<154.05 237.95>
VStem: 90 212<31.0503 114.244 435.756 518.95>
LayerCount: 2
Back
Fore
SplineSet
302 73 m 0
 302 52 279 28 260 9 c 0
 241 -10 217 -33 196 -33 c 0
 175 -33 151 -10 132 9 c 0
 113 28 90 52 90 73 c 0
 90 94 113 117 132 136 c 0
 151 155 175 179 196 179 c 0
 217 179 241 155 260 136 c 0
 279 117 302 94 302 73 c 0
302 477 m 0
 302 456 279 433 260 414 c 0
 241 395 217 371 196 371 c 0
 175 371 151 395 132 414 c 0
 113 433 90 456 90 477 c 0
 90 498 113 522 132 541 c 0
 151 560 175 583 196 583 c 0
 217 583 241 560 260 541 c 0
 279 522 302 498 302 477 c 0
EndSplineSet
EndChar

StartChar: sym001
Encoding: 3 -1 3
Width: 766
Flags: W
HStem: 26 212<198.05 281.95> 312 212<484.05 567.95>
VStem: 134 212<90.0503 173.95> 420 212<376.05 459.95>
LayerCount: 2
Back
Fore
SplineSet
346 132 m 0
 346 111 322 87 304 68 c 0
 285 49 261 26 240 26 c 0
 219 26 195 49 176 68 c 0
 157 87 134 111 134 132 c 0
 134 153 157 177 176 196 c 0
 195 214 219 238 240 238 c 0
 261 238 285 214 304 196 c 0
 322 177 346 153 346 132 c 0
632 418 m 0
 632 397 608 373 590 354 c 0
 571 336 547 312 526 312 c 0
 505 312 481 336 462 354 c 0
 443 373 420 397 420 418 c 0
 420 439 443 463 462 482 c 0
 481 501 505 524 526 524 c 0
 547 524 571 501 590 482 c 0
 608 463 632 439 632 418 c 0
EndSplineSet
EndChar

StartChar: sym002
Encoding: 4 -1 4
Width: 766
Flags: W
HStem: 26 212<484.05 567.95> 312 212<198.05 281.95>
VStem: 134 212<376.05 459.95> 420 212<90.0503 173.95>
LayerCount: 2
Back
Fore
SplineSet
632 132 m 0
 632 111 608 87 590 68 c 0
 571 49 547 26 526 26 c 0
 505 26 481 49 462 68 c 0
 443 87 420 111 420 132 c 0
 420 153 443 177 462 196 c 0
 481 214 505 238 526 238 c 0
 547 238 571 214 590 196 c 0
 608 177 632 153 632 132 c 0
346 418 m 0
 346 397 322 373 304 354 c 0
 285 336 261 312 240 312 c 0
 219 312 195 336 176 354 c 0
 157 373 134 397 134 418 c 0
 134 439 157 463 176 482 c 0
 195 501 219 524 240 524 c 0
 261 524 285 501 304 482 c 0
 322 463 346 439 346 418 c 0
EndSplineSet
EndChar

StartChar: uni22EF
Encoding: 5 8943 5
Width: 1201
Flags: W
HStem: 169 212<154.05 237.95 558.756 642.198 963.05 1046.95>
VStem: 90 212<233.05 316.95> 494 212<233.05 316.95> 899 212<233.05 316.95>
LayerCount: 2
Back
Fore
SplineSet
302 275 m 0
 302 254 279 230 260 211 c 0
 241 192 217 169 196 169 c 0
 175 169 151 192 132 211 c 0
 113 230 90 254 90 275 c 0
 90 296 113 320 132 339 c 0
 151 358 175 381 196 381 c 0
 217 381 241 358 260 339 c 0
 279 320 302 296 302 275 c 0
706 275 m 0
 706 254 683 230 664 211 c 0
 645 192 622 169 600 169 c 0
 579 169 556 192 537 211 c 0
 518 230 494 254 494 275 c 0
 494 296 518 320 537 339 c 0
 556 358 579 381 600 381 c 0
 622 381 645 358 664 339 c 0
 683 320 706 296 706 275 c 0
1111 275 m 0
 1111 254 1088 230 1069 211 c 0
 1050 192 1026 169 1005 169 c 0
 984 169 960 192 941 211 c 0
 922 230 899 254 899 275 c 0
 899 296 922 320 941 339 c 0
 960 358 984 381 1005 381 c 0
 1026 381 1050 358 1069 339 c 0
 1088 320 1111 296 1111 275 c 0
EndSplineSet
EndChar

StartChar: uni22EE
Encoding: 6 8942 6
Width: 392
Flags: W
HStem: -235 212<154.05 237.95> 169 212<154.05 237.95> 573 212<154.05 237.95>
VStem: 90 212<-171.198 -87.7557 233.05 316.95 637.756 721.198>
CounterMasks: 1 e0
LayerCount: 2
Back
Fore
SplineSet
302 -129 m 0
 302 -151 279 -174 260 -193 c 0
 241 -212 217 -235 196 -235 c 0
 175 -235 151 -212 132 -193 c 0
 113 -174 90 -151 90 -129 c 0
 90 -108 113 -85 132 -66 c 0
 151 -47 175 -23 196 -23 c 0
 217 -23 241 -47 260 -66 c 0
 279 -85 302 -108 302 -129 c 0
302 275 m 0
 302 254 279 230 260 211 c 0
 241 192 217 169 196 169 c 0
 175 169 151 192 132 211 c 0
 113 230 90 254 90 275 c 0
 90 296 113 320 132 339 c 0
 151 358 175 381 196 381 c 0
 217 381 241 358 260 339 c 0
 279 320 302 296 302 275 c 0
302 679 m 0
 302 658 279 635 260 616 c 0
 241 597 217 573 196 573 c 0
 175 573 151 597 132 616 c 0
 113 635 90 658 90 679 c 0
 90 701 113 724 132 743 c 0
 151 762 175 785 196 785 c 0
 217 785 241 762 260 743 c 0
 279 724 302 701 302 679 c 0
EndSplineSet
EndChar

StartChar: uni22F0
Encoding: 7 8944 7
Width: 1052
Flags: W
HStem: -117 212<198.05 281.95> 169 212<484.05 567.95> 455 212<770.05 853.95>
VStem: 134 212<-52.9497 30.9497> 420 212<233.05 316.95> 706 212<519.05 602.95>
CounterMasks: 1 fc
LayerCount: 2
Back
Fore
SplineSet
346 -11 m 0
 346 -32 322 -56 304 -75 c 0
 285 -94 261 -117 240 -117 c 0
 219 -117 195 -94 176 -75 c 0
 157 -56 134 -32 134 -11 c 0
 134 10 157 34 176 53 c 0
 195 71 219 95 240 95 c 0
 261 95 285 71 304 53 c 0
 322 34 346 10 346 -11 c 0
632 275 m 0
 632 254 608 230 590 211 c 0
 571 192 547 169 526 169 c 0
 505 169 481 192 462 211 c 0
 443 230 420 254 420 275 c 0
 420 296 443 320 462 339 c 0
 481 358 505 381 526 381 c 0
 547 381 571 358 590 339 c 0
 608 320 632 296 632 275 c 0
918 561 m 0
 918 540 894 516 876 497 c 0
 857 479 833 455 812 455 c 0
 791 455 767 479 748 497 c 0
 729 516 706 540 706 561 c 0
 706 582 729 606 748 625 c 0
 767 644 791 667 812 667 c 0
 833 667 857 644 876 625 c 0
 894 606 918 582 918 561 c 0
EndSplineSet
EndChar

StartChar: uni22F1
Encoding: 8 8945 8
Width: 1052
Flags: W
HStem: -117 212<770.05 853.95> 169 212<484.05 567.95> 455 212<198.05 281.95>
VStem: 134 212<519.05 602.95> 420 212<233.05 316.95> 706 212<-52.9497 30.9497>
CounterMasks: 1 fc
LayerCount: 2
Back
Fore
SplineSet
918 -11 m 0
 918 -32 894 -56 876 -75 c 0
 857 -94 833 -117 812 -117 c 0
 791 -117 767 -94 748 -75 c 0
 729 -56 706 -32 706 -11 c 0
 706 10 729 34 748 53 c 0
 767 71 791 95 812 95 c 0
 833 95 857 71 876 53 c 0
 894 34 918 10 918 -11 c 0
632 275 m 0
 632 254 608 230 590 211 c 0
 571 192 547 169 526 169 c 0
 505 169 481 192 462 211 c 0
 443 230 420 254 420 275 c 0
 420 296 443 320 462 339 c 0
 481 358 505 381 526 381 c 0
 547 381 571 358 590 339 c 0
 608 320 632 296 632 275 c 0
346 561 m 0
 346 540 322 516 304 497 c 0
 285 479 261 455 240 455 c 0
 219 455 195 479 176 497 c 0
 157 516 134 540 134 561 c 0
 134 582 157 606 176 625 c 0
 195 644 219 667 240 667 c 0
 261 667 285 644 304 625 c 0
 322 606 346 582 346 561 c 0
EndSplineSet
EndChar

StartChar: sym003
Encoding: 9 -1 9
Width: 720
Flags: W
HStem: 7 212<178.05 261.95> 169 212<458.05 541.95> 331 212<178.05 261.95>
VStem: 114 212<71.7557 155.198 394.802 478.244> 394 212<233.05 316.95>
LayerCount: 2
Back
Fore
SplineSet
606 275 m 0x58
 606 254 582 230 564 211 c 0
 545 192 521 169 500 169 c 0
 479 169 455 192 436 211 c 0
 417 230 394 254 394 275 c 0
 394 296 417 320 436 339 c 0
 455 358 479 381 500 381 c 0
 521 381 545 358 564 339 c 0
 582 320 606 296 606 275 c 0x58
326 437 m 0
 326 415 303 392 284 373 c 0
 265 354 241 331 220 331 c 0
 199 331 175 354 156 373 c 0
 138 392 114 415 114 437 c 0
 114 458 138 481 156 500 c 0
 175 519 199 543 220 543 c 0x38
 241 543 265 519 284 500 c 0
 303 481 326 458 326 437 c 0
326 113 m 0
 326 92 303 69 284 50 c 0
 265 31 241 7 220 7 c 0
 199 7 175 31 156 50 c 0
 138 69 114 92 114 113 c 0
 114 135 138 158 156 177 c 0
 175 196 199 219 220 219 c 0x98
 241 219 265 196 284 177 c 0
 303 158 326 135 326 113 c 0
EndSplineSet
EndChar

StartChar: therefore
Encoding: 10 8756 10
Width: 720
Flags: W
HStem: 29 212<156.756 240.198 479.802 563.244> 309 212<318.05 401.95>
VStem: 92 212<93.0503 176.95> 254 212<373.05 456.95> 416 212<93.0503 176.95>
LayerCount: 2
Back
Fore
SplineSet
466 415 m 0xd0
 466 394 443 370 424 351 c 0
 405 332 381 309 360 309 c 0
 339 309 315 332 296 351 c 0
 278 370 254 394 254 415 c 0
 254 436 278 460 296 479 c 0
 315 497 339 521 360 521 c 0
 381 521 405 497 424 479 c 0
 443 460 466 436 466 415 c 0xd0
304 135 m 0xe0
 304 114 281 90 262 71 c 0
 243 53 220 29 198 29 c 0
 177 29 154 53 135 71 c 0
 116 90 92 114 92 135 c 0
 92 156 116 180 135 199 c 0
 154 218 177 241 198 241 c 0
 220 241 243 218 262 199 c 0
 281 180 304 156 304 135 c 0xe0
628 135 m 0xc8
 628 114 604 90 585 71 c 0
 566 53 543 29 522 29 c 0
 500 29 477 53 458 71 c 0
 439 90 416 114 416 135 c 0
 416 156 439 180 458 199 c 0
 477 218 500 241 522 241 c 0
 543 241 566 218 585 199 c 0
 604 180 628 156 628 135 c 0xc8
EndSplineSet
EndChar

StartChar: sym004
Encoding: 11 -1 11
Width: 720
Flags: W
HStem: 7 212<458.05 541.95> 169 212<178.05 261.95> 331 212<458.05 541.95>
VStem: 114 212<233.05 316.95> 394 212<71.7557 155.198 394.802 478.244>
LayerCount: 2
Back
Fore
SplineSet
326 275 m 0x58
 326 254 303 230 284 211 c 0
 265 192 241 169 220 169 c 0
 199 169 175 192 156 211 c 0
 138 230 114 254 114 275 c 0
 114 296 138 320 156 339 c 0
 175 358 199 381 220 381 c 0
 241 381 265 358 284 339 c 0
 303 320 326 296 326 275 c 0x58
606 113 m 0
 606 92 582 69 564 50 c 0
 545 31 521 7 500 7 c 0
 479 7 455 31 436 50 c 0
 417 69 394 92 394 113 c 0
 394 135 417 158 436 177 c 0
 455 196 479 219 500 219 c 0x98
 521 219 545 196 564 177 c 0
 582 158 606 135 606 113 c 0
606 437 m 0
 606 415 582 392 564 373 c 0
 545 354 521 331 500 331 c 0
 479 331 455 354 436 373 c 0
 417 392 394 415 394 437 c 0
 394 458 417 481 436 500 c 0
 455 519 479 543 500 543 c 0x38
 521 543 545 519 564 500 c 0
 582 481 606 458 606 437 c 0
EndSplineSet
EndChar

StartChar: uni2235
Encoding: 12 8757 12
Width: 720
Flags: W
HStem: 29 212<318.05 401.95> 309 212<156.756 240.198 479.802 563.244>
VStem: 92 212<373.05 456.95> 254 212<93.0503 176.95> 416 212<373.05 456.95>
LayerCount: 2
Back
Fore
SplineSet
466 135 m 0xd0
 466 114 443 90 424 71 c 0
 405 53 381 29 360 29 c 0
 339 29 315 53 296 71 c 0
 278 90 254 114 254 135 c 0
 254 156 278 180 296 199 c 0
 315 218 339 241 360 241 c 0
 381 241 405 218 424 199 c 0
 443 180 466 156 466 135 c 0xd0
628 415 m 0xc8
 628 394 604 370 585 351 c 0
 566 332 543 309 522 309 c 0
 500 309 477 332 458 351 c 0
 439 370 416 394 416 415 c 0
 416 436 439 460 458 479 c 0
 477 497 500 521 522 521 c 0
 543 521 566 497 585 479 c 0
 604 460 628 436 628 415 c 0xc8
304 415 m 0xe0
 304 394 281 370 262 351 c 0
 243 332 220 309 198 309 c 0
 177 309 154 332 135 351 c 0
 116 370 92 394 92 415 c 0
 92 436 116 460 135 479 c 0
 154 497 177 521 198 521 c 0
 220 521 243 497 262 479 c 0
 281 460 304 436 304 415 c 0xe0
EndSplineSet
EndChar

StartChar: uni2237
Encoding: 13 8759 13
Width: 720
Flags: W
HStem: 5 212<154.05 237.95 482.05 565.95> 333 212<154.05 237.95 482.05 565.95>
VStem: 90 212<69.0503 152.95 397.05 480.95> 418 212<69.0503 152.95 397.05 480.95>
LayerCount: 2
Back
Fore
SplineSet
630 439 m 0
 630 418 607 394 588 375 c 0
 569 357 545 333 524 333 c 0
 503 333 479 357 460 375 c 0
 442 394 418 418 418 439 c 0
 418 460 442 484 460 503 c 0
 479 522 503 545 524 545 c 0
 545 545 569 522 588 503 c 0
 607 484 630 460 630 439 c 0
302 439 m 0
 302 418 279 394 260 375 c 0
 241 357 217 333 196 333 c 0
 175 333 151 357 132 375 c 0
 113 394 90 418 90 439 c 0
 90 460 113 484 132 503 c 0
 151 522 175 545 196 545 c 0
 217 545 241 522 260 503 c 0
 279 484 302 460 302 439 c 0
302 111 m 0
 302 90 279 66 260 47 c 0
 241 28 217 5 196 5 c 0
 175 5 151 28 132 47 c 0
 113 66 90 90 90 111 c 0
 90 132 113 156 132 175 c 0
 151 193 175 217 196 217 c 0
 217 217 241 193 260 175 c 0
 279 156 302 132 302 111 c 0
630 111 m 0
 630 90 607 66 588 47 c 0
 569 28 545 5 524 5 c 0
 503 5 479 28 460 47 c 0
 442 66 418 90 418 111 c 0
 418 132 442 156 460 175 c 0
 479 193 503 217 524 217 c 0
 545 217 569 193 588 175 c 0
 607 156 630 132 630 111 c 0
EndSplineSet
EndChar

StartChar: minus
Encoding: 14 8722 14
Width: 720
Flags: W
HStem: 225 100<90 630>
LayerCount: 2
Back
Fore
SplineSet
630 325 m 1
 630 225 l 1
 90 225 l 1
 90 325 l 1
 630 325 l 1
EndSplineSet
EndChar

StartChar: uni2215
Encoding: 15 8725 15
Width: 720
Flags: W
HStem: -3 21G<133 173> 533 20G<547 587>
LayerCount: 2
Back
Fore
SplineSet
567 553 m 1
 638 482 l 1
 153 -3 l 1
 82 68 l 1
 567 553 l 1
EndSplineSet
EndChar

StartChar: uni2216
Encoding: 16 8726 16
Width: 720
Flags: W
HStem: -3 21G<547 587> 533 20G<133 173>
LayerCount: 2
Back
Fore
SplineSet
82 482 m 1
 153 553 l 1
 638 68 l 1
 567 -3 l 1
 82 482 l 1
EndSplineSet
EndChar

StartChar: plus
Encoding: 17 43 17
Width: 720
Flags: W
HStem: 225 100<90 310 410 630> 525 20G<310 410>
VStem: 310 100<5 225 325 545>
LayerCount: 2
Back
Fore
SplineSet
310 545 m 1
 410 545 l 1
 410 325 l 1
 630 325 l 1
 630 225 l 1
 410 225 l 1
 410 5 l 1
 310 5 l 1
 310 225 l 1
 90 225 l 1
 90 325 l 1
 310 325 l 1
 310 545 l 1
EndSplineSet
EndChar

StartChar: multiply
Encoding: 18 215 18
Width: 720
Flags: W
HStem: -3 21G<133 173 547 587> 533 20G<133 173 547 587>
LayerCount: 2
Back
Fore
SplineSet
82 482 m 1
 153 553 l 1
 360 346 l 1
 567 553 l 1
 638 482 l 1
 431 275 l 1
 638 68 l 1
 567 -3 l 1
 360 204 l 1
 153 -3 l 1
 82 68 l 1
 289 275 l 1
 82 482 l 1
EndSplineSet
EndChar

StartChar: uni2238
Encoding: 19 8760 19
Width: 720
Flags: W
HStem: 225 100<90 630> 388 159<322.426 397.574>
VStem: 281 159<430.413 504.574>
LayerCount: 2
Back
Fore
SplineSet
90 225 m 1
 90 325 l 1
 630 325 l 1
 630 225 l 1
 90 225 l 1
440 467 m 0
 440 452 422 434 408 420 c 0
 394 406 376 388 360 388 c 0
 344 388 326 406 312 420 c 0
 298 434 281 452 281 467 c 0
 281 483 298 501 312 515 c 0
 326 529 344 547 360 547 c 0
 376 547 394 529 408 515 c 0
 422 501 440 483 440 467 c 0
EndSplineSet
EndChar

StartChar: uni2A2A
Encoding: 20 10794 20
Width: 720
Flags: W
HStem: 3 159<322.426 397.574> 225 100<90 630>
VStem: 281 159<45.4257 119.587>
LayerCount: 2
Back
Fore
SplineSet
630 325 m 1
 630 225 l 1
 90 225 l 1
 90 325 l 1
 630 325 l 1
440 83 m 0
 440 67 422 49 408 35 c 0
 394 21 376 3 360 3 c 0
 344 3 326 21 312 35 c 0
 298 49 281 67 281 83 c 0
 281 98 298 116 312 130 c 0
 326 144 344 162 360 162 c 0
 376 162 394 144 408 130 c 0
 422 116 440 98 440 83 c 0
EndSplineSet
EndChar

StartChar: divide
Encoding: 21 247 21
Width: 720
Flags: W
HStem: 3 159<322.426 397.574> 225 100<90 630> 388 159<322.426 397.574>
VStem: 281 159<45.4257 119.587 430.413 504.574>
CounterMasks: 1 e0
LayerCount: 2
Back
Fore
SplineSet
630 325 m 1
 630 225 l 1
 90 225 l 1
 90 325 l 1
 630 325 l 1
440 467 m 0
 440 452 422 434 408 420 c 0
 394 406 376 388 360 388 c 0
 344 388 326 406 312 420 c 0
 298 434 281 452 281 467 c 0
 281 483 298 501 312 515 c 0
 326 529 344 547 360 547 c 0
 376 547 394 529 408 515 c 0
 422 501 440 483 440 467 c 0
440 83 m 0
 440 67 422 49 408 35 c 0
 394 21 376 3 360 3 c 0
 344 3 326 21 312 35 c 0
 298 49 281 67 281 83 c 0
 281 98 298 116 312 130 c 0
 326 144 344 162 360 162 c 0
 376 162 394 144 408 130 c 0
 422 116 440 98 440 83 c 0
EndSplineSet
EndChar

StartChar: uni2A2B
Encoding: 22 10795 22
Width: 720
Flags: W
HStem: 3 159<463.426 537.587> 225 100<90 630> 388 159<182.426 256.587>
VStem: 140 159<430.413 504.574> 421 159<45.4257 119.587>
CounterMasks: 1 e0
LayerCount: 2
Back
Fore
SplineSet
630 325 m 1
 630 225 l 1
 90 225 l 1
 90 325 l 1
 630 325 l 1
299 467 m 0
 299 452 281 434 267 420 c 0
 253 406 235 388 220 388 c 0
 204 388 186 406 172 420 c 0
 158 434 140 452 140 467 c 0
 140 483 158 501 172 515 c 0
 186 529 204 547 220 547 c 0
 235 547 253 529 267 515 c 0
 281 501 299 483 299 467 c 0
580 83 m 0
 580 67 562 49 548 35 c 0
 534 21 516 3 501 3 c 0
 485 3 467 21 453 35 c 0
 439 49 421 67 421 83 c 0
 421 98 439 116 453 130 c 0
 467 144 485 162 501 162 c 0
 516 162 534 144 548 130 c 0
 562 116 580 98 580 83 c 0
EndSplineSet
EndChar

StartChar: uni2A2C
Encoding: 23 10796 23
Width: 720
Flags: W
HStem: 3 159<182.426 256.587> 225 100<90 630> 388 159<463.426 537.587>
VStem: 140 159<45.4257 119.587> 421 159<430.413 504.574>
CounterMasks: 1 e0
LayerCount: 2
Back
Fore
SplineSet
630 325 m 1
 630 225 l 1
 90 225 l 1
 90 325 l 1
 630 325 l 1
580 467 m 0
 580 452 562 434 548 420 c 0
 534 406 516 388 501 388 c 0
 485 388 467 406 453 420 c 0
 439 434 421 452 421 467 c 0
 421 483 439 501 453 515 c 0
 467 529 485 547 501 547 c 0
 516 547 534 529 548 515 c 0
 562 501 580 483 580 467 c 0
299 83 m 0
 299 67 281 49 267 35 c 0
 253 21 235 3 220 3 c 0
 204 3 186 21 172 35 c 0
 158 49 140 67 140 83 c 0
 140 98 158 116 172 130 c 0
 186 144 204 162 220 162 c 0
 235 162 253 144 267 130 c 0
 281 116 299 98 299 83 c 0
EndSplineSet
EndChar

StartChar: uni223A
Encoding: 24 8762 24
Width: 720
Flags: W
HStem: 3 159<182.426 256.587 463.426 537.587> 225 100<90 630> 388 159<182.426 256.587 463.426 537.587>
VStem: 140 159<45.4257 119.587 430.413 504.574> 421 159<45.4257 119.587 430.413 504.574>
CounterMasks: 1 e0
LayerCount: 2
Back
Fore
SplineSet
630 325 m 1
 630 225 l 1
 90 225 l 1
 90 325 l 1
 630 325 l 1
299 467 m 0
 299 452 281 434 267 420 c 0
 253 406 235 388 220 388 c 0
 204 388 186 406 172 420 c 0
 158 434 140 452 140 467 c 0
 140 483 158 501 172 515 c 0
 186 529 204 547 220 547 c 0
 235 547 253 529 267 515 c 0
 281 501 299 483 299 467 c 0
580 467 m 0
 580 452 562 434 548 420 c 0
 534 406 516 388 501 388 c 0
 485 388 467 406 453 420 c 0
 439 434 421 452 421 467 c 0
 421 483 439 501 453 515 c 0
 467 529 485 547 501 547 c 0
 516 547 534 529 548 515 c 0
 562 501 580 483 580 467 c 0
299 83 m 0
 299 67 281 49 267 35 c 0
 253 21 235 3 220 3 c 0
 204 3 186 21 172 35 c 0
 158 49 140 67 140 83 c 0
 140 98 158 116 172 130 c 0
 186 144 204 162 220 162 c 0
 235 162 253 144 267 130 c 0
 281 116 299 98 299 83 c 0
580 83 m 0
 580 67 562 49 548 35 c 0
 534 21 516 3 501 3 c 0
 485 3 467 21 453 35 c 0
 439 49 421 67 421 83 c 0
 421 98 439 116 453 130 c 0
 467 144 485 162 501 162 c 0
 516 162 534 144 548 130 c 0
 562 116 580 98 580 83 c 0
EndSplineSet
EndChar

StartChar: plusminus
Encoding: 25 177 25
Width: 720
Flags: W
HStem: -63 100<90 630> 293 100<90 310 410 630>
VStem: 310 100<72 293 393 613>
LayerCount: 2
Back
Fore
SplineSet
310 613 m 1
 410 613 l 1
 410 393 l 1
 630 393 l 1
 630 293 l 1
 410 293 l 1
 410 72 l 1
 310 72 l 1
 310 293 l 1
 90 293 l 1
 90 393 l 1
 310 393 l 1
 310 613 l 1
630 37 m 1
 630 -63 l 1
 90 -63 l 1
 90 37 l 1
 630 37 l 1
EndSplineSet
EndChar

StartChar: uni2213
Encoding: 26 8723 26
Width: 720
Flags: W
HStem: 157 100<90 310 410 630> 513 100<90 630>
VStem: 310 100<-63 157 257 478>
LayerCount: 2
Back
Fore
SplineSet
310 478 m 1
 410 478 l 1
 410 257 l 1
 630 257 l 1
 630 157 l 1
 410 157 l 1
 410 -63 l 1
 310 -63 l 1
 310 157 l 1
 90 157 l 1
 90 257 l 1
 310 257 l 1
 310 478 l 1
630 613 m 1
 630 513 l 1
 90 513 l 1
 90 613 l 1
 630 613 l 1
EndSplineSet
EndChar

StartChar: uni2214
Encoding: 27 8724 27
Width: 720
Flags: W
HStem: 157 100<90 310 410 630> 483 159<322.426 397.574>
VStem: 281 159<525.426 599.587> 310 100<-63 157 257 478>
LayerCount: 2
Back
Fore
SplineSet
310 478 m 1xd0
 410 478 l 1
 410 257 l 1
 630 257 l 1
 630 157 l 1
 410 157 l 1
 410 -63 l 1
 310 -63 l 1
 310 157 l 1
 90 157 l 1
 90 257 l 1
 310 257 l 1
 310 478 l 1xd0
440 563 m 0xe0
 440 547 422 529 408 515 c 0
 394 501 376 483 360 483 c 0
 344 483 326 501 312 515 c 0
 298 529 281 547 281 563 c 0
 281 578 298 596 312 610 c 0
 326 624 344 642 360 642 c 0
 376 642 394 624 408 610 c 0
 422 596 440 578 440 563 c 0xe0
EndSplineSet
EndChar

StartChar: uni2A25
Encoding: 28 10789 28
Width: 720
Flags: W
HStem: -92 159<322.426 397.574> 293 100<90 310 410 630>
VStem: 281 159<-49.5872 24.5743> 310 100<72 293 393 613>
LayerCount: 2
Back
Fore
SplineSet
310 613 m 1xd0
 410 613 l 1
 410 393 l 1
 630 393 l 1
 630 293 l 1
 410 293 l 1
 410 72 l 1
 310 72 l 1
 310 293 l 1
 90 293 l 1
 90 393 l 1
 310 393 l 1
 310 613 l 1xd0
440 -13 m 0xe0
 440 -28 422 -46 408 -60 c 0
 394 -74 376 -92 360 -92 c 0
 344 -92 326 -74 312 -60 c 0
 298 -46 281 -28 281 -13 c 0
 281 3 298 21 312 35 c 0
 326 49 344 67 360 67 c 0
 376 67 394 49 408 35 c 0
 422 21 440 3 440 -13 c 0xe0
EndSplineSet
EndChar

StartChar: uni2A30
Encoding: 29 10800 29
Width: 720
Flags: W
HStem: 456 159<322.426 397.574>
VStem: 281 159<498.426 572.587>
LayerCount: 2
Back
Fore
SplineSet
82 415 m 1
 153 486 l 1
 360 279 l 1
 567 486 l 1
 638 415 l 1
 431 208 l 1
 638 0 l 1
 567 -71 l 1
 360 136 l 1
 153 -71 l 1
 82 0 l 1
 289 208 l 1
 82 415 l 1
440 536 m 0
 440 520 422 502 408 488 c 0
 394 474 376 456 360 456 c 0
 344 456 326 474 312 488 c 0
 298 502 281 520 281 536 c 0
 281 551 298 569 312 583 c 0
 326 597 344 615 360 615 c 0
 376 615 394 597 408 583 c 0
 422 569 440 551 440 536 c 0
EndSplineSet
EndChar

StartChar: uni2A31
Encoding: 30 10801 30
Width: 720
Flags: W
HStem: -63 100<90 630>
LayerCount: 2
Back
Fore
SplineSet
82 550 m 1
 153 621 l 1
 360 414 l 1
 567 621 l 1
 638 550 l 1
 431 342 l 1
 638 135 l 1
 567 64 l 1
 360 271 l 1
 153 64 l 1
 82 135 l 1
 289 342 l 1
 82 550 l 1
630 37 m 1
 630 -63 l 1
 90 -63 l 1
 90 37 l 1
 630 37 l 1
EndSplineSet
EndChar

StartChar: uni22C7
Encoding: 31 8903 31
Width: 720
Flags: W
HStem: -3 21G<133 173 547 587> 3 159<322.426 397.574> 225 100<90 239 481 630> 388 159<322.426 397.574>
VStem: 281 159<45.4257 119.587 430.413 504.574>
LayerCount: 2
Back
Fore
SplineSet
82 482 m 1xb8
 153 553 l 1
 360 346 l 1
 567 553 l 1
 638 482 l 1
 481 325 l 1
 630 325 l 1
 630 225 l 1
 481 225 l 1
 638 68 l 1
 567 -3 l 1
 360 204 l 1
 153 -3 l 1
 82 68 l 1
 239 225 l 1
 90 225 l 1
 90 325 l 1
 239 325 l 1
 82 482 l 1xb8
440 467 m 0
 440 452 422 434 408 420 c 0
 394 406 376 388 360 388 c 0
 344 388 326 406 312 420 c 0
 298 434 281 452 281 467 c 0
 281 483 298 501 312 515 c 0
 326 529 344 547 360 547 c 0
 376 547 394 529 408 515 c 0
 422 501 440 483 440 467 c 0
440 83 m 0
 440 67 422 49 408 35 c 0
 394 21 376 3 360 3 c 0
 344 3 326 21 312 35 c 0
 298 49 281 67 281 83 c 0
 281 98 298 116 312 130 c 0
 326 144 344 162 360 162 c 0x78
 376 162 394 144 408 130 c 0
 422 116 440 98 440 83 c 0
EndSplineSet
EndChar

StartChar: logicalnot
Encoding: 32 172 32
Width: 720
Flags: W
HStem: 225 100<90 530>
VStem: 530 100<33 225>
LayerCount: 2
Back
Fore
SplineSet
90 225 m 1
 90 325 l 1
 270 325 450 325 630 325 c 1
 630 228 630 130 630 33 c 1
 530 33 l 1
 530 225 l 1
 90 225 l 1
EndSplineSet
EndChar

StartChar: revlogicalnot
Encoding: 33 8976 33
Width: 720
Flags: W
HStem: 225 100<190 630>
VStem: 90 100<33 225>
LayerCount: 2
Back
Fore
SplineSet
190 225 m 1
 190 33 l 1
 90 33 l 1
 90 130 90 228 90 325 c 1
 270 325 450 325 630 325 c 1
 630 225 l 1
 190 225 l 1
EndSplineSet
EndChar

StartChar: uni2A3C
Encoding: 34 10812 34
Width: 720
Flags: W
HStem: 225 100<90 530>
VStem: 530 100<325 517>
LayerCount: 2
Back
Fore
SplineSet
90 225 m 1
 90 325 l 1
 530 325 l 1
 530 517 l 1
 630 517 l 1
 630 420 630 322 630 225 c 1
 450 225 270 225 90 225 c 1
EndSplineSet
EndChar

StartChar: uni2A3D
Encoding: 35 10813 35
Width: 720
Flags: W
HStem: 225 100<190 630>
VStem: 90 100<325 517>
LayerCount: 2
Back
Fore
SplineSet
630 225 m 1
 450 225 270 225 90 225 c 1
 90 322 90 420 90 517 c 1
 190 517 l 1
 190 325 l 1
 630 325 l 1
 630 225 l 1
EndSplineSet
EndChar

StartChar: uni22CB
Encoding: 36 8907 36
Width: 720
Flags: W
HStem: -3 21G<133 173 547 587> 533 20G<133 173>
LayerCount: 2
Back
Fore
SplineSet
638 68 m 1
 567 -3 l 1
 360 204 l 1
 153 -3 l 1
 82 68 l 1
 289 275 l 1
 82 482 l 1
 153 553 l 1
 638 68 l 1
EndSplineSet
EndChar

StartChar: uni22CC
Encoding: 37 8908 37
Width: 720
Flags: W
HStem: -3 21G<133 173 547 587> 533 20G<547 587>
LayerCount: 2
Back
Fore
SplineSet
567 553 m 1
 638 482 l 1
 431 275 l 1
 638 68 l 1
 567 -3 l 1
 360 204 l 1
 153 -3 l 1
 82 68 l 1
 567 553 l 1
EndSplineSet
EndChar

StartChar: uni2A32
Encoding: 38 10802 38
Width: 720
Flags: W
HStem: 3 100<259 461> 533 20G<133 173 547 587>
LayerCount: 2
Back
Fore
SplineSet
603 103 m 1
 576 3 l 1
 144 3 l 1
 117 103 l 1
 289 275 l 1
 82 482 l 1
 153 553 l 1
 360 346 l 1
 567 553 l 1
 638 482 l 1
 431 275 l 1
 603 103 l 1
461 103 m 1
 360 204 l 1
 259 103 l 1
 461 103 l 1
EndSplineSet
EndChar

StartChar: uni22CA
Encoding: 39 8906 39
Width: 720
Flags: W
HStem: -3 21G<133 173> 533 20G<133 173>
VStem: 532 100<174 376>
LayerCount: 2
Back
Fore
SplineSet
532 518 m 1
 632 491 l 1
 632 59 l 1
 532 32 l 1
 360 204 l 1
 153 -3 l 1
 82 68 l 1
 289 275 l 1
 82 482 l 1
 153 553 l 1
 360 346 l 1
 532 518 l 1
532 376 m 1
 431 275 l 1
 532 174 l 1
 532 376 l 1
EndSplineSet
EndChar

StartChar: sym005
Encoding: 40 -1 40
Width: 720
Flags: W
HStem: -3 21G<133 173 547 587> 447 100<259 461>
LayerCount: 2
Back
Fore
SplineSet
117 447 m 1
 144 547 l 1
 576 547 l 1
 603 447 l 1
 431 275 l 1
 638 68 l 1
 567 -3 l 1
 360 204 l 1
 153 -3 l 1
 82 68 l 1
 289 275 l 1
 117 447 l 1
259 447 m 1
 360 346 l 1
 461 447 l 1
 259 447 l 1
EndSplineSet
EndChar

StartChar: uni22C9
Encoding: 41 8905 41
Width: 720
Flags: W
HStem: -3 21G<547 587> 533 20G<547 587>
VStem: 88 100<174 376>
LayerCount: 2
Back
Fore
SplineSet
188 32 m 1
 88 59 l 1
 88 491 l 1
 188 518 l 1
 360 346 l 1
 567 553 l 1
 638 482 l 1
 431 275 l 1
 638 68 l 1
 567 -3 l 1
 360 204 l 1
 188 32 l 1
188 174 m 1
 289 275 l 1
 188 376 l 1
 188 174 l 1
EndSplineSet
EndChar

StartChar: uni22C8
Encoding: 42 8904 42
Width: 720
Flags: W
VStem: 88 100<174 376> 532 100<174 376>
LayerCount: 2
Back
Fore
SplineSet
188 32 m 1
 88 59 l 1
 88 491 l 1
 188 518 l 1
 360 346 l 1
 532 518 l 1
 632 491 l 1
 632 59 l 1
 532 32 l 1
 360 204 l 1
 188 32 l 1
532 376 m 1
 431 275 l 1
 532 174 l 1
 532 376 l 1
188 174 m 1
 289 275 l 1
 188 376 l 1
 188 174 l 1
EndSplineSet
EndChar

StartChar: uni29D6
Encoding: 43 10710 43
Width: 720
Flags: W
HStem: 3 100<259 461> 447 100<259 461>
LayerCount: 2
Back
Fore
SplineSet
603 103 m 1
 576 3 l 1
 144 3 l 1
 117 103 l 1
 289 275 l 1
 117 447 l 1
 144 547 l 1
 576 547 l 1
 603 447 l 1
 431 275 l 1
 603 103 l 1
259 447 m 1
 360 346 l 1
 461 447 l 1
 259 447 l 1
461 103 m 1
 360 204 l 1
 259 103 l 1
 461 103 l 1
EndSplineSet
EndChar

StartChar: sym006
Encoding: 44 -1 44
Width: 720
Flags: W
HStem: 225 100<345 630>
LayerCount: 2
Back
Fore
SplineSet
143 527 m 1
 210 460 278 392 345 325 c 1
 630 325 l 1
 630 225 l 1
 345 225 l 1
 278 158 210 90 143 23 c 1
 72 94 l 1
 253 275 l 1
 72 456 l 1
 143 527 l 1
EndSplineSet
EndChar

StartChar: sym007
Encoding: 45 -1 45
Width: 720
Flags: W
HStem: 525 20G<310 410>
VStem: 310 100<260 545>
LayerCount: 2
Back
Fore
SplineSet
108 58 m 1
 175 125 243 193 310 260 c 1
 310 545 l 1
 410 545 l 1
 410 260 l 1
 477 193 545 125 612 58 c 1
 541 -13 l 1
 360 168 l 1
 179 -13 l 1
 108 58 l 1
EndSplineSet
EndChar

StartChar: sym008
Encoding: 46 -1 46
Width: 720
Flags: W
HStem: 225 100<90 375>
LayerCount: 2
Back
Fore
SplineSet
577 23 m 1
 510 90 442 158 375 225 c 1
 90 225 l 1
 90 325 l 1
 375 325 l 1
 442 392 510 460 577 527 c 1
 648 456 l 1
 467 275 l 1
 648 94 l 1
 577 23 l 1
EndSplineSet
EndChar

StartChar: sym009
Encoding: 47 -1 47
Width: 720
Flags: W
VStem: 310 100<5 290>
LayerCount: 2
Back
Fore
SplineSet
612 492 m 1
 545 425 477 357 410 290 c 1
 410 5 l 1
 310 5 l 1
 310 290 l 1
 243 357 175 425 108 492 c 1
 179 563 l 1
 360 382 l 1
 541 563 l 1
 612 492 l 1
EndSplineSet
EndChar

StartChar: logicaland
Encoding: 48 8743 48
Width: 720
Flags: W
HStem: 525 20G<319.022 400.978>
LayerCount: 2
Back
Fore
SplineSet
616 46 m 1
 525 5 l 1
 360 373 l 1
 195 5 l 1
 104 46 l 1
 328 545 l 1
 392 545 l 1
 616 46 l 1
EndSplineSet
EndChar

StartChar: logicalor
Encoding: 49 8744 49
Width: 720
Flags: W
HStem: 525 20G<150.61 203.967 516.033 569.39>
LayerCount: 2
Back
Fore
SplineSet
104 504 m 1
 195 545 l 1
 360 177 l 1
 525 545 l 1
 616 504 l 1
 392 5 l 1
 328 5 l 1
 104 504 l 1
EndSplineSet
EndChar

StartChar: uni27D1
Encoding: 50 10193 50
Width: 720
Flags: W
HStem: 15 159<322.426 397.574> 525 20G<319.022 400.978>
VStem: 281 159<57.4257 132.574>
LayerCount: 2
Back
Fore
SplineSet
616 46 m 1
 525 5 l 1
 360 373 l 1
 195 5 l 1
 104 46 l 1
 328 545 l 1
 392 545 l 1
 616 46 l 1
440 95 m 0
 440 79 422 61 408 47 c 0
 394 33 376 15 360 15 c 0
 344 15 326 33 312 47 c 0
 298 61 281 79 281 95 c 0
 281 111 298 129 312 143 c 0
 326 157 344 174 360 174 c 0
 376 174 394 157 408 143 c 0
 422 129 440 111 440 95 c 0
EndSplineSet
EndChar

StartChar: uni27C7
Encoding: 51 10183 51
Width: 720
Flags: W
HStem: 376 159<322.426 397.574> 525 20G<150.61 203.967 516.033 569.39>
VStem: 281 159<417.426 492.574>
LayerCount: 2
Back
Fore
SplineSet
104 504 m 1x60
 195 545 l 1
 360 177 l 1
 525 545 l 1
 616 504 l 1
 392 5 l 1
 328 5 l 1
 104 504 l 1x60
440 455 m 0
 440 439 422 421 408 407 c 0
 394 393 376 376 360 376 c 0
 344 376 326 393 312 407 c 0
 298 421 281 439 281 455 c 0
 281 471 298 489 312 503 c 0
 326 517 344 535 360 535 c 0xa0
 376 535 394 517 408 503 c 0
 422 489 440 471 440 455 c 0
EndSplineSet
EndChar

StartChar: uni2A55
Encoding: 52 10837 52
Width: 960
Flags: W
HStem: 525 20G<319.022 400.98 559.02 640.978>
LayerCount: 2
Back
Fore
SplineSet
856 46 m 1
 765 5 l 1
 600 373 l 1
 535 227 l 1
 616 46 l 1
 525 5 l 1
 480 105 l 1
 435 5 l 1
 344 46 l 1
 425 227 l 1
 360 373 l 1
 195 5 l 1
 104 46 l 1
 328 545 l 1
 392 545 l 1
 480 349 l 1
 568 545 l 1
 632 545 l 1
 856 46 l 1
EndSplineSet
EndChar

StartChar: uni2A56
Encoding: 53 10838 53
Width: 960
Flags: W
HStem: 525 20G<150.61 203.967 390.61 444 516 569.39 756.033 809.39>
LayerCount: 2
Back
Fore
SplineSet
344 504 m 1
 435 545 l 1
 480 445 l 1
 525 545 l 1
 616 504 l 1
 535 323 l 1
 600 177 l 1
 765 545 l 1
 856 504 l 1
 632 5 l 1
 568 5 l 1
 480 201 l 1
 392 5 l 1
 328 5 l 1
 104 504 l 1
 195 545 l 1
 360 177 l 1
 425 323 l 1
 344 504 l 1
EndSplineSet
EndChar

StartChar: uni22CF
Encoding: 54 8911 54
Width: 720
Flags: W
HStem: 525 20G<310 410>
VStem: 310 100<356.125 545>
LayerCount: 2
Back
Fore
SplineSet
360 261 m 1
 318 165 253 78 174 5 c 1
 106 78 l 1
 224 188 310 334 310 495 c 2
 310 545 l 1
 410 545 l 1
 410 495 l 2
 410 334 496 188 614 78 c 1
 546 5 l 1
 467 78 402 165 360 261 c 1
EndSplineSet
EndChar

StartChar: uni22CE
Encoding: 55 8910 55
Width: 720
Flags: W
HStem: 525 20G<155.37 213.5 506.5 564.63>
VStem: 310 100<5 193.875>
LayerCount: 2
Back
Fore
SplineSet
360 289 m 1
 402 385 467 472 546 545 c 1
 614 472 l 1
 496 362 410 216 410 55 c 2
 410 5 l 1
 310 5 l 1
 310 55 l 2
 310 216 224 362 106 472 c 1
 174 545 l 1
 253 472 318 385 360 289 c 1
EndSplineSet
EndChar

StartChar: uni22BC
Encoding: 56 8892 56
Width: 720
Flags: W
HStem: 513 100<90 630>
LayerCount: 2
Back
Fore
SplineSet
616 -22 m 1
 525 -63 l 1
 360 305 l 1
 195 -63 l 1
 104 -22 l 1
 328 478 l 1
 392 478 l 1
 616 -22 l 1
90 513 m 1
 90 613 l 1
 630 613 l 1
 630 513 l 1
 90 513 l 1
EndSplineSet
EndChar

StartChar: uni22BB
Encoding: 57 8891 57
Width: 720
Flags: W
HStem: -63 100<90 630>
LayerCount: 2
Back
Fore
SplineSet
104 572 m 1
 195 613 l 1
 360 245 l 1
 525 613 l 1
 616 572 l 1
 392 72 l 1
 328 72 l 1
 104 572 l 1
90 -63 m 1
 90 37 l 1
 630 37 l 1
 630 -63 l 1
 90 -63 l 1
EndSplineSet
EndChar

StartChar: uni2A5E
Encoding: 58 10846 58
Width: 720
Flags: W
HStem: 445 100<90 630> 580 100<90 630>
LayerCount: 2
Back
Fore
SplineSet
616 -89 m 1
 525 -130 l 1
 360 238 l 1
 195 -130 l 1
 104 -89 l 1
 328 410 l 1
 392 410 l 1
 616 -89 l 1
90 445 m 1
 90 545 l 1
 630 545 l 1
 630 445 l 1
 90 445 l 1
90 580 m 1
 90 680 l 1
 630 680 l 1
 630 580 l 1
 90 580 l 1
EndSplineSet
EndChar

StartChar: uni2A63
Encoding: 59 10851 59
Width: 720
Flags: W
HStem: -130 100<90 630> 5 100<90 630>
LayerCount: 2
Back
Fore
SplineSet
104 639 m 1
 195 680 l 1
 360 312 l 1
 525 680 l 1
 616 639 l 1
 392 140 l 1
 328 140 l 1
 104 639 l 1
90 5 m 1
 90 105 l 1
 630 105 l 1
 630 5 l 1
 90 5 l 1
90 -130 m 1
 90 -30 l 1
 630 -30 l 1
 630 -130 l 1
 90 -130 l 1
EndSplineSet
EndChar

StartChar: union
Encoding: 60 8746 60
Width: 720
Flags: W
HStem: 5 100<264.259 455.741> 525 20G<90 190 530 630>
VStem: 90 100<172.389 545> 530 100<172.389 545>
LayerCount: 2
Back
Fore
SplineSet
190 545 m 1
 190 232 l 2
 190 153 273 105 360 105 c 0
 447 105 530 153 530 232 c 2
 530 545 l 1
 630 545 l 1
 630 232 l 2
 630 98 502 5 360 5 c 0
 218 5 90 98 90 232 c 2
 90 545 l 1
 190 545 l 1
EndSplineSet
EndChar

StartChar: intersection
Encoding: 61 8745 61
Width: 720
Flags: W
HStem: 445 100<264.259 455.741>
VStem: 90 100<5 377.611> 530 100<5 377.611>
LayerCount: 2
Back
Fore
SplineSet
530 5 m 1
 530 318 l 2
 530 397 447 445 360 445 c 0
 273 445 190 397 190 318 c 2
 190 5 l 1
 90 5 l 1
 90 318 l 2
 90 452 218 545 360 545 c 0
 502 545 630 452 630 318 c 2
 630 5 l 1
 530 5 l 1
EndSplineSet
EndChar

StartChar: uni22D3
Encoding: 62 8915 62
Width: 900
Flags: W
HStem: -85 100<336.685 563.315> 125 100<385.702 514.298>
VStem: 90 100<141.188 635> 271 100<242.679 635> 529 100<242.679 635> 710 100<141.188 635>
LayerCount: 2
Back
Fore
SplineSet
371 635 m 1
 371 279 l 2
 371 243 410 225 450 225 c 0
 490 225 529 243 529 279 c 2
 529 635 l 1
 629 635 l 1
 629 279 l 2
 629 189 545 125 450 125 c 0
 355 125 271 189 271 279 c 2
 271 635 l 1
 371 635 l 1
190 635 m 1
 190 221 l 2
 190 96 315 15 450 15 c 0
 585 15 710 96 710 221 c 2
 710 635 l 1
 810 635 l 1
 810 221 l 2
 810 42 640 -85 450 -85 c 0
 260 -85 90 42 90 221 c 2
 90 635 l 1
 190 635 l 1
EndSplineSet
EndChar

StartChar: uni22D2
Encoding: 63 8914 63
Width: 900
Flags: W
HStem: 325 100<385.702 514.298> 535 100<336.685 563.315>
VStem: 90 100<-85 408.812> 271 100<-85 307.321> 529 100<-85 307.321> 710 100<-85 408.812>
LayerCount: 2
Back
Fore
SplineSet
529 -85 m 1
 529 271 l 2
 529 307 490 325 450 325 c 0
 410 325 371 307 371 271 c 2
 371 -85 l 1
 271 -85 l 1
 271 271 l 2
 271 361 355 425 450 425 c 0
 545 425 629 361 629 271 c 2
 629 -85 l 1
 529 -85 l 1
710 -85 m 1
 710 329 l 2
 710 454 585 535 450 535 c 0
 315 535 190 454 190 329 c 2
 190 -85 l 1
 90 -85 l 1
 90 329 l 2
 90 508 260 635 450 635 c 0
 640 635 810 508 810 329 c 2
 810 -85 l 1
 710 -85 l 1
EndSplineSet
EndChar

StartChar: uni228D
Encoding: 64 8845 64
Width: 720
Flags: W
HStem: 5 100<264.259 455.741> 286 159<322.426 397.574> 525 20G<90 190 530 630>
VStem: 90 100<172.389 545> 281 159<327.426 402.574> 530 100<172.389 545>
LayerCount: 2
Back
Fore
SplineSet
190 545 m 1
 190 232 l 2
 190 153 273 105 360 105 c 0
 447 105 530 153 530 232 c 2
 530 545 l 1
 630 545 l 1
 630 232 l 2
 630 98 502 5 360 5 c 0
 218 5 90 98 90 232 c 2
 90 545 l 1
 190 545 l 1
440 365 m 0
 440 349 422 331 408 317 c 0
 394 303 376 286 360 286 c 0
 344 286 326 303 312 317 c 0
 298 331 281 349 281 365 c 0
 281 381 298 399 312 413 c 0
 326 427 344 445 360 445 c 0
 376 445 394 427 408 413 c 0
 422 399 440 381 440 365 c 0
EndSplineSet
EndChar

StartChar: uni2A40
Encoding: 65 10816 65
Width: 720
Flags: W
HStem: 105 159<322.426 397.574> 445 100<264.259 455.741>
VStem: 90 100<5 377.611> 281 159<147.426 222.574> 530 100<5 377.611>
LayerCount: 2
Back
Fore
SplineSet
530 5 m 1
 530 318 l 2
 530 397 447 445 360 445 c 0
 273 445 190 397 190 318 c 2
 190 5 l 1
 90 5 l 1
 90 318 l 2
 90 452 218 545 360 545 c 0
 502 545 630 452 630 318 c 2
 630 5 l 1
 530 5 l 1
440 185 m 0
 440 169 422 151 408 137 c 0
 394 123 376 105 360 105 c 0
 344 105 326 123 312 137 c 0
 298 151 281 169 281 185 c 0
 281 201 298 219 312 233 c 0
 326 247 344 264 360 264 c 0
 376 264 394 247 408 233 c 0
 422 219 440 201 440 185 c 0
EndSplineSet
EndChar

StartChar: uni228E
Encoding: 66 8846 66
Width: 720
Flags: W
HStem: 5 100<264.259 455.741> 315 100<220 310 410 500> 525 20G<90 190 530 630>
VStem: 90 100<172.389 545> 310 100<225 315 415 505> 530 100<172.389 545>
CounterMasks: 1 1c
LayerCount: 2
Back
Fore
SplineSet
190 545 m 1
 190 232 l 2
 190 153 273 105 360 105 c 0
 447 105 530 153 530 232 c 2
 530 545 l 1
 630 545 l 1
 630 232 l 2
 630 98 502 5 360 5 c 0
 218 5 90 98 90 232 c 2
 90 545 l 1
 190 545 l 1
310 505 m 1
 410 505 l 1
 410 415 l 1
 500 415 l 1
 500 315 l 1
 410 315 l 1
 410 225 l 1
 310 225 l 1
 310 315 l 1
 220 315 l 1
 220 415 l 1
 310 415 l 1
 310 505 l 1
EndSplineSet
EndChar

StartChar: sym00A
Encoding: 67 -1 67
Width: 720
Flags: W
HStem: 135 100<220 310 410 500> 445 100<264.259 455.741>
VStem: 90 100<5 377.611> 310 100<45 135 235 325> 530 100<5 377.611>
CounterMasks: 1 38
LayerCount: 2
Back
Fore
SplineSet
530 5 m 1
 530 318 l 2
 530 397 447 445 360 445 c 0
 273 445 190 397 190 318 c 2
 190 5 l 1
 90 5 l 1
 90 318 l 2
 90 452 218 545 360 545 c 0
 502 545 630 452 630 318 c 2
 630 5 l 1
 530 5 l 1
310 325 m 1
 410 325 l 1
 410 235 l 1
 500 235 l 1
 500 135 l 1
 410 135 l 1
 410 45 l 1
 310 45 l 1
 310 135 l 1
 220 135 l 1
 220 235 l 1
 310 235 l 1
 310 325 l 1
EndSplineSet
EndChar

StartChar: uni2294
Encoding: 68 8852 68
Width: 720
Flags: W
HStem: 5 100<190 530> 525 20G<90 190 530 630>
VStem: 90 100<105 545> 530 100<105 545>
LayerCount: 2
Back
Fore
SplineSet
90 545 m 1
 190 545 l 1
 190 105 l 1
 530 105 l 1
 530 545 l 1
 630 545 l 1
 630 5 l 1
 90 5 l 1
 90 545 l 1
EndSplineSet
EndChar

StartChar: uni2293
Encoding: 69 8851 69
Width: 720
Flags: W
HStem: 445 100<190 530>
VStem: 90 100<5 445> 530 100<5 445>
LayerCount: 2
Back
Fore
SplineSet
190 5 m 1
 90 5 l 1
 90 545 l 1
 630 545 l 1
 630 5 l 1
 530 5 l 1
 530 445 l 1
 190 445 l 1
 190 5 l 1
EndSplineSet
EndChar

StartChar: uni2A4F
Encoding: 70 10831 70
Width: 900
Flags: W
HStem: -85 100<190 710> 96 100<350 550>
VStem: 90 100<15 635> 250 100<196 635> 550 100<196 635> 710 100<15 635>
LayerCount: 2
Back
Fore
SplineSet
90 635 m 1
 190 635 l 1
 190 15 l 1
 710 15 l 1
 710 635 l 1
 810 635 l 1
 810 -85 l 1
 90 -85 l 1
 90 635 l 1
250 635 m 1
 350 635 l 1
 350 196 l 1
 550 196 l 1
 550 635 l 1
 650 635 l 1
 650 96 l 1
 250 96 l 1
 250 635 l 1
EndSplineSet
EndChar

StartChar: uni2A4E
Encoding: 71 10830 71
Width: 900
Flags: W
HStem: 354 100<350 550> 535 100<190 710>
VStem: 90 100<-85 535> 250 100<-85 354> 550 100<-85 354> 710 100<-85 535>
LayerCount: 2
Back
Fore
SplineSet
190 -85 m 1
 90 -85 l 1
 90 635 l 1
 810 635 l 1
 810 -85 l 1
 710 -85 l 1
 710 535 l 1
 190 535 l 1
 190 -85 l 1
350 -85 m 1
 250 -85 l 1
 250 454 l 1
 650 454 l 1
 650 -85 l 1
 550 -85 l 1
 550 354 l 1
 350 354 l 1
 350 -85 l 1
EndSplineSet
EndChar

StartChar: sym00B
Encoding: 72 -1 72
Width: 720
Flags: W
HStem: 5 100<190 530> 286 159<322.426 397.574> 525 20G<90 190 530 630>
VStem: 90 100<105 545> 281 159<327.426 402.574> 530 100<105 545>
LayerCount: 2
Back
Fore
SplineSet
90 545 m 1
 190 545 l 1
 190 105 l 1
 530 105 l 1
 530 545 l 1
 630 545 l 1
 630 5 l 1
 90 5 l 1
 90 545 l 1
440 365 m 0
 440 349 422 331 408 317 c 0
 394 303 376 286 360 286 c 0
 344 286 326 303 312 317 c 0
 298 331 281 349 281 365 c 0
 281 381 298 399 312 413 c 0
 326 427 344 445 360 445 c 0
 376 445 394 427 408 413 c 0
 422 399 440 381 440 365 c 0
EndSplineSet
EndChar

StartChar: sym00C
Encoding: 73 -1 73
Width: 720
Flags: W
HStem: 105 159<322.426 397.574> 445 100<190 530>
VStem: 90 100<5 445> 281 159<147.426 222.574> 530 100<5 445>
LayerCount: 2
Back
Fore
SplineSet
190 5 m 1
 90 5 l 1
 90 545 l 1
 630 545 l 1
 630 5 l 1
 530 5 l 1
 530 445 l 1
 190 445 l 1
 190 5 l 1
440 185 m 0
 440 169 422 151 408 137 c 0
 394 123 376 105 360 105 c 0
 344 105 326 123 312 137 c 0
 298 151 281 169 281 185 c 0
 281 201 298 219 312 233 c 0
 326 247 344 264 360 264 c 0
 376 264 394 247 408 233 c 0
 422 219 440 201 440 185 c 0
EndSplineSet
EndChar

StartChar: sym00D
Encoding: 74 -1 74
Width: 720
Flags: W
HStem: 5 100<190 530> 315 100<220 310 410 500> 525 20G<90 190 530 630>
VStem: 90 100<105 545> 310 100<225 315 415 505> 530 100<105 545>
CounterMasks: 1 1c
LayerCount: 2
Back
Fore
SplineSet
90 545 m 1
 190 545 l 1
 190 105 l 1
 530 105 l 1
 530 545 l 1
 630 545 l 1
 630 5 l 1
 90 5 l 1
 90 545 l 1
310 505 m 1
 410 505 l 1
 410 415 l 1
 500 415 l 1
 500 315 l 1
 410 315 l 1
 410 225 l 1
 310 225 l 1
 310 315 l 1
 220 315 l 1
 220 415 l 1
 310 415 l 1
 310 505 l 1
EndSplineSet
EndChar

StartChar: sym00E
Encoding: 75 -1 75
Width: 720
Flags: W
HStem: 135 100<220 310 410 500> 445 100<190 530>
VStem: 90 100<5 445> 310 100<45 135 235 325> 530 100<5 445>
CounterMasks: 1 38
LayerCount: 2
Back
Fore
SplineSet
190 5 m 1
 90 5 l 1
 90 545 l 1
 630 545 l 1
 630 5 l 1
 530 5 l 1
 530 445 l 1
 190 445 l 1
 190 5 l 1
310 325 m 1
 410 325 l 1
 410 235 l 1
 500 235 l 1
 500 135 l 1
 410 135 l 1
 410 45 l 1
 310 45 l 1
 310 135 l 1
 220 135 l 1
 220 235 l 1
 310 235 l 1
 310 325 l 1
EndSplineSet
EndChar

StartChar: uni27D3
Encoding: 76 10195 76
Width: 720
Flags: W
HStem: 5 100<90 530> 196 159<322.426 397.574> 525 20G<530 630>
VStem: 281 159<237.426 312.574> 530 100<105 545>
LayerCount: 2
Back
Fore
SplineSet
90 5 m 1
 90 105 l 1
 530 105 l 1
 530 545 l 1
 630 545 l 1
 630 365 630 185 630 5 c 1
 450 5 270 5 90 5 c 1
440 275 m 0
 440 259 422 241 408 227 c 0
 394 213 376 196 360 196 c 0
 344 196 326 213 312 227 c 0
 298 241 281 259 281 275 c 0
 281 291 298 309 312 323 c 0
 326 337 344 355 360 355 c 0
 376 355 394 337 408 323 c 0
 422 309 440 291 440 275 c 0
EndSplineSet
EndChar

StartChar: uni27D4
Encoding: 77 10196 77
Width: 720
Flags: W
HStem: 196 159<322.426 397.574> 445 100<190 630>
VStem: 90 100<5 445> 281 159<237.426 312.574>
LayerCount: 2
Back
Fore
SplineSet
630 545 m 1
 630 445 l 1
 190 445 l 1
 190 5 l 1
 90 5 l 1
 90 185 90 365 90 545 c 1
 270 545 450 545 630 545 c 1
440 275 m 0
 440 259 422 241 408 227 c 0
 394 213 376 196 360 196 c 0
 344 196 326 213 312 227 c 0
 298 241 281 259 281 275 c 0
 281 291 298 309 312 323 c 0
 326 337 344 355 360 355 c 0
 376 355 394 337 408 323 c 0
 422 309 440 291 440 275 c 0
EndSplineSet
EndChar

StartChar: uni25B9
Encoding: 78 9657 78
Width: 690
Flags: W
VStem: 90 100<154 396>
LayerCount: 2
Back
Fore
SplineSet
600 275 m 1
 90 -19 l 1
 90 569 l 1
 600 275 l 1
400 275 m 1
 190 396 l 1
 190 154 l 1
 400 275 l 1
EndSplineSet
EndChar

StartChar: uni25B5
Encoding: 79 9653 79
Width: 769
Flags: W
HStem: 20 100<263 506>
LayerCount: 2
Back
Fore
SplineSet
384 530 m 1
 679 20 l 1
 90 20 l 1
 384 530 l 1
384 330 m 1
 263 120 l 1
 506 120 l 1
 384 330 l 1
EndSplineSet
EndChar

StartChar: uni25C3
Encoding: 80 9667 80
Width: 690
Flags: W
VStem: 500 100<154 396>
LayerCount: 2
Back
Fore
SplineSet
90 275 m 1
 600 569 l 1
 600 -19 l 1
 90 275 l 1
290 275 m 1
 500 154 l 1
 500 396 l 1
 290 275 l 1
EndSplineSet
EndChar

StartChar: uni25BF
Encoding: 81 9663 81
Width: 769
Flags: W
HStem: 430 100<263 506>
LayerCount: 2
Back
Fore
SplineSet
384 20 m 1
 90 530 l 1
 679 530 l 1
 384 20 l 1
384 220 m 1
 506 430 l 1
 263 430 l 1
 384 220 l 1
EndSplineSet
EndChar

StartChar: uni25B8
Encoding: 82 9656 82
Width: 690
Flags: W
LayerCount: 2
Back
Fore
SplineSet
600 275 m 1
 90 -19 l 1
 90 569 l 1
 600 275 l 1
EndSplineSet
EndChar

StartChar: uni25B4
Encoding: 83 9652 83
Width: 769
Flags: W
LayerCount: 2
Back
Fore
SplineSet
384 530 m 1
 679 20 l 1
 90 20 l 1
 384 530 l 1
EndSplineSet
EndChar

StartChar: uni25C2
Encoding: 84 9666 84
Width: 690
Flags: W
LayerCount: 2
Back
Fore
SplineSet
90 275 m 1
 600 569 l 1
 600 -19 l 1
 90 275 l 1
EndSplineSet
EndChar

StartChar: uni25BE
Encoding: 85 9662 85
Width: 769
Flags: W
LayerCount: 2
Back
Fore
SplineSet
384 20 m 1
 90 530 l 1
 679 530 l 1
 384 20 l 1
EndSplineSet
EndChar

StartChar: uni25B7
Encoding: 86 9655 86
Width: 893
Flags: W
VStem: 90 100<37 513>
LayerCount: 2
Back
Fore
SplineSet
803 275 m 1
 90 -136 l 1
 90 686 l 1
 803 275 l 1
603 275 m 1
 190 513 l 1
 190 37 l 1
 603 275 l 1
EndSplineSet
EndChar

StartChar: uni25B3
Encoding: 87 9651 87
Width: 1003
Flags: W
HStem: -81 100<263 740>
LayerCount: 2
Back
Fore
SplineSet
501 631 m 1
 913 -81 l 1
 90 -81 l 1
 501 631 l 1
501 431 m 1
 263 19 l 1
 740 19 l 1
 501 431 l 1
EndSplineSet
EndChar

StartChar: uni25C1
Encoding: 88 9665 88
Width: 893
Flags: W
VStem: 703 100<37 513>
LayerCount: 2
Back
Fore
SplineSet
90 275 m 1
 803 686 l 1
 803 -136 l 1
 90 275 l 1
290 275 m 1
 703 37 l 1
 703 513 l 1
 290 275 l 1
EndSplineSet
EndChar

StartChar: uni25BD
Encoding: 89 9661 89
Width: 1003
Flags: W
HStem: 531 100<263 740>
LayerCount: 2
Back
Fore
SplineSet
501 -81 m 1
 90 631 l 1
 913 631 l 1
 501 -81 l 1
501 119 m 1
 740 531 l 1
 263 531 l 1
 501 119 l 1
EndSplineSet
EndChar

StartChar: uni25B6
Encoding: 90 9654 90
Width: 893
Flags: W
LayerCount: 2
Back
Fore
SplineSet
803 275 m 1
 90 -136 l 1
 90 686 l 1
 803 275 l 1
EndSplineSet
EndChar

StartChar: uni25B2
Encoding: 91 9650 91
Width: 1003
Flags: W
LayerCount: 2
Back
Fore
SplineSet
501 631 m 1
 913 -81 l 1
 90 -81 l 1
 501 631 l 1
EndSplineSet
EndChar

StartChar: uni25C0
Encoding: 92 9664 92
Width: 893
Flags: W
LayerCount: 2
Back
Fore
SplineSet
90 275 m 1
 803 686 l 1
 803 -136 l 1
 90 275 l 1
EndSplineSet
EndChar

StartChar: uni25BC
Encoding: 93 9660 93
Width: 1003
Flags: W
LayerCount: 2
Back
Fore
SplineSet
501 -81 m 1
 90 631 l 1
 913 631 l 1
 501 -81 l 1
EndSplineSet
EndChar

StartChar: sym00F
Encoding: 94 -1 94
Width: 1289
Flags: W
HStem: -205 100<263 1025> 735 20G<632.458 655.562>
LayerCount: 2
Back
Fore
SplineSet
644 755 m 1
 1199 -205 l 1
 90 -205 l 1
 644 755 l 1
644 555 m 1
 263 -105 l 1
 1025 -105 l 1
 644 555 l 1
EndSplineSet
EndChar

StartChar: sym010
Encoding: 95 -1 95
Width: 1289
Flags: W
HStem: 655 100<263 1025>
LayerCount: 2
Back
Fore
SplineSet
644 -205 m 1
 90 755 l 1
 1199 755 l 1
 644 -205 l 1
644 -5 m 1
 1025 655 l 1
 263 655 l 1
 644 -5 l 1
EndSplineSet
EndChar

StartChar: openbullet
Encoding: 96 9702 96
Width: 564
Flags: W
HStem: 83 100<223.811 340.189> 367 100<223.811 340.189>
VStem: 90 100<216.811 333.189> 374 100<216.811 333.189>
LayerCount: 2
Back
Fore
SplineSet
474 275 m 0
 474 224 454 175 418 139 c 0
 382 103 333 83 282 83 c 0
 231 83 182 103 146 139 c 0
 110 175 90 224 90 275 c 0
 90 326 110 375 146 411 c 0
 182 447 231 467 282 467 c 0
 333 467 382 447 418 411 c 0
 454 375 474 326 474 275 c 0
282 183 m 0
 332 183 374 225 374 275 c 0
 374 325 332 367 282 367 c 0
 232 367 190 325 190 275 c 0
 190 225 232 183 282 183 c 0
EndSplineSet
EndChar

StartChar: bullet
Encoding: 97 8226 97
Width: 564
Flags: W
HStem: 83 384<193.483 370.517>
VStem: 90 384<186.483 363.517>
LayerCount: 2
Back
Fore
SplineSet
474 275 m 0
 474 224 454 175 418 139 c 0
 382 103 333 83 282 83 c 0
 231 83 182 103 146 139 c 0
 110 175 90 224 90 275 c 0
 90 326 110 375 146 411 c 0
 182 447 231 467 282 467 c 0
 333 467 382 447 418 411 c 0
 454 375 474 326 474 275 c 0
EndSplineSet
EndChar

StartChar: circle
Encoding: 98 9675 98
Width: 780
Flags: W
HStem: -25 100<303.229 476.771> 475 100<303.229 476.771>
VStem: 90 100<188.229 361.771> 590 100<188.229 361.771>
LayerCount: 2
Back
Fore
SplineSet
690 275 m 0
 690 195 658 119 602 63 c 0
 546 7 470 -25 390 -25 c 0
 310 -25 234 7 178 63 c 0
 122 119 90 195 90 275 c 0
 90 355 122 431 178 487 c 0
 234 543 310 575 390 575 c 0
 470 575 546 543 602 487 c 0
 658 431 690 355 690 275 c 0
390 75 m 0
 499 75 590 166 590 275 c 0
 590 384 499 475 390 475 c 0
 281 475 190 384 190 275 c 0
 190 166 281 75 390 75 c 0
EndSplineSet
EndChar

StartChar: uni25CF
Encoding: 99 9679 99
Width: 780
Flags: W
HStem: -25 600<278.384 501.616>
VStem: 90 600<163.384 386.616>
LayerCount: 2
Back
Fore
SplineSet
690 275 m 0
 690 195 658 119 602 63 c 0
 546 7 470 -25 390 -25 c 0
 310 -25 234 7 178 63 c 0
 122 119 90 195 90 275 c 0
 90 355 122 431 178 487 c 0
 234 543 310 575 390 575 c 0
 470 575 546 543 602 487 c 0
 658 431 690 355 690 275 c 0
EndSplineSet
EndChar

StartChar: uni2296
Encoding: 100 8854 100
Width: 780
Flags: W
HStem: -25 100<301.329 478.671> 225 100<196 584> 475 100<301.329 478.671>
CounterMasks: 1 e0
LayerCount: 2
Back
Fore
SplineSet
584 325 m 1
 563 407 484 475 390 475 c 0
 296 475 217 407 196 325 c 1
 584 325 l 1
196 225 m 1
 217 143 296 75 390 75 c 0
 484 75 563 143 584 225 c 1
 196 225 l 1
690 275 m 0
 690 195 658 119 602 63 c 0
 546 7 470 -25 390 -25 c 0
 310 -25 234 7 178 63 c 0
 122 119 90 195 90 275 c 0
 90 355 122 431 178 487 c 0
 234 543 310 575 390 575 c 0
 470 575 546 543 602 487 c 0
 658 431 690 355 690 275 c 0
EndSplineSet
EndChar

StartChar: uni29B6
Encoding: 101 10678 101
Width: 780
Flags: W
VStem: 90 100<186.329 363.671> 340 100<81 469> 590 100<186.329 363.671>
CounterMasks: 1 e0
LayerCount: 2
Back
Fore
SplineSet
340 469 m 1
 258 448 190 369 190 275 c 0
 190 181 258 102 340 81 c 1
 340 469 l 1
690 275 m 0
 690 195 658 119 602 63 c 0
 546 7 470 -25 390 -25 c 0
 310 -25 234 7 178 63 c 0
 122 119 90 195 90 275 c 0
 90 355 122 431 178 487 c 0
 234 543 310 575 390 575 c 0
 470 575 546 543 602 487 c 0
 658 431 690 355 690 275 c 0
440 81 m 1
 522 102 590 181 590 275 c 0
 590 369 522 448 440 469 c 1
 440 81 l 1
EndSplineSet
EndChar

StartChar: uni2298
Encoding: 102 8856 102
Width: 780
Flags: W
HStem: -25 100<301.504 476.771> 475 100<303.229 478.496>
VStem: 90 100<186.504 361.771> 590 100<188.229 363.496>
LayerCount: 2
Back
Fore
SplineSet
390 475 m 0
 281 475 190 384 190 275 c 0
 190 239 200 204 218 174 c 1
 491 447 l 1
 461 465 426 475 390 475 c 0
390 75 m 0
 499 75 590 166 590 275 c 0
 590 311 580 346 562 376 c 1
 289 103 l 1
 319 85 354 75 390 75 c 0
690 275 m 0
 690 195 658 119 602 63 c 0
 546 7 470 -25 390 -25 c 0
 310 -25 234 7 178 63 c 0
 122 119 90 195 90 275 c 0
 90 355 122 431 178 487 c 0
 234 543 310 575 390 575 c 0
 470 575 546 543 602 487 c 0
 658 431 690 355 690 275 c 0
EndSplineSet
EndChar

StartChar: uni29B8
Encoding: 103 10680 103
Width: 780
Flags: W
HStem: -25 100<303.229 478.496> 475 100<301.504 476.771>
VStem: 90 100<188.229 363.496> 590 100<186.504 361.771>
LayerCount: 2
Back
Fore
SplineSet
190 275 m 0
 190 166 281 75 390 75 c 0
 426 75 461 85 491 103 c 1
 218 376 l 1
 200 346 190 311 190 275 c 0
690 275 m 0
 690 195 658 119 602 63 c 0
 546 7 470 -25 390 -25 c 0
 310 -25 234 7 178 63 c 0
 122 119 90 195 90 275 c 0
 90 355 122 431 178 487 c 0
 234 543 310 575 390 575 c 0
 470 575 546 543 602 487 c 0
 658 431 690 355 690 275 c 0
590 275 m 0
 590 384 499 475 390 475 c 0
 354 475 319 465 289 447 c 1
 562 174 l 1
 580 204 590 239 590 275 c 0
EndSplineSet
EndChar

StartChar: circleplus
Encoding: 104 8853 104
Width: 780
Flags: W
HStem: 225 100<196 340 440 584>
VStem: 340 100<81 225 325 469>
LayerCount: 2
Back
Fore
SplineSet
340 325 m 1
 340 469 l 1
 271 451 214 394 196 325 c 1
 340 325 l 1
440 325 m 1
 584 325 l 1
 566 394 509 451 440 469 c 1
 440 325 l 1
340 225 m 1
 196 225 l 1
 214 156 271 99 340 81 c 1
 340 225 l 1
440 225 m 1
 440 81 l 1
 509 99 566 156 584 225 c 1
 440 225 l 1
690 275 m 0
 690 195 658 119 602 63 c 0
 546 7 470 -25 390 -25 c 0
 310 -25 234 7 178 63 c 0
 122 119 90 195 90 275 c 0
 90 355 122 431 178 487 c 0
 234 543 310 575 390 575 c 0
 470 575 546 543 602 487 c 0
 658 431 690 355 690 275 c 0
EndSplineSet
EndChar

StartChar: circlemultiply
Encoding: 105 8855 105
Width: 780
Flags: W
HStem: -25 100<301.504 478.496> 475 100<301.504 478.496>
VStem: 90 100<186.504 363.496> 590 100<186.504 363.496>
LayerCount: 2
Back
Fore
SplineSet
390 204 m 1
 289 103 l 1
 319 85 354 75 390 75 c 0
 426 75 461 85 491 103 c 1
 390 204 l 1
461 275 m 1
 562 174 l 1
 580 204 590 239 590 275 c 0
 590 311 580 346 562 376 c 1
 461 275 l 1
319 275 m 1
 218 376 l 1
 200 346 190 311 190 275 c 0
 190 239 200 204 218 174 c 1
 319 275 l 1
390 346 m 1
 491 447 l 1
 461 465 426 475 390 475 c 0
 354 475 319 465 289 447 c 1
 390 346 l 1
690 275 m 0
 690 195 658 119 602 63 c 0
 546 7 470 -25 390 -25 c 0
 310 -25 234 7 178 63 c 0
 122 119 90 195 90 275 c 0
 90 355 122 431 178 487 c 0
 234 543 310 575 390 575 c 0
 470 575 546 543 602 487 c 0
 658 431 690 355 690 275 c 0
EndSplineSet
EndChar

StartChar: uni2299
Encoding: 106 8857 106
Width: 780
Flags: W
HStem: -25 100<303.229 476.771> 169 212<348.05 431.95> 475 100<303.229 476.771>
VStem: 90 100<188.229 361.771> 284 212<233.05 316.95> 590 100<188.229 361.771>
CounterMasks: 1 fc
LayerCount: 2
Back
Fore
SplineSet
690 275 m 0
 690 195 658 119 602 63 c 0
 546 7 470 -25 390 -25 c 0
 310 -25 234 7 178 63 c 0
 122 119 90 195 90 275 c 0
 90 355 122 431 178 487 c 0
 234 543 310 575 390 575 c 0
 470 575 546 543 602 487 c 0
 658 431 690 355 690 275 c 0
390 75 m 0
 499 75 590 166 590 275 c 0
 590 384 499 475 390 475 c 0
 281 475 190 384 190 275 c 0
 190 166 281 75 390 75 c 0
496 275 m 0
 496 254 473 230 454 211 c 0
 435 192 411 169 390 169 c 0
 369 169 345 192 326 211 c 0
 308 230 284 254 284 275 c 0
 284 296 308 320 326 339 c 0
 345 358 369 381 390 381 c 0
 411 381 435 358 454 339 c 0
 473 320 496 296 496 275 c 0
EndSplineSet
EndChar

StartChar: uni229A
Encoding: 107 8858 107
Width: 780
Flags: W
HStem: -25 100<303.229 476.771> 125 100<349.315 430.685> 325 100<349.315 430.685> 475 100<303.229 476.771>
VStem: 90 100<188.229 361.771> 240 100<234.315 315.685> 440 100<234.315 315.685> 590 100<188.229 361.771>
LayerCount: 2
Back
Fore
SplineSet
690 275 m 0
 690 195 658 119 602 63 c 0
 546 7 470 -25 390 -25 c 0
 310 -25 234 7 178 63 c 0
 122 119 90 195 90 275 c 0
 90 355 122 431 178 487 c 0
 234 543 310 575 390 575 c 0
 470 575 546 543 602 487 c 0
 658 431 690 355 690 275 c 0
390 75 m 0
 499 75 590 166 590 275 c 0
 590 384 499 475 390 475 c 0
 281 475 190 384 190 275 c 0
 190 166 281 75 390 75 c 0
390 425 m 0
 472 425 540 357 540 275 c 0
 540 193 472 125 390 125 c 0
 308 125 240 193 240 275 c 0
 240 357 308 425 390 425 c 0
390 225 m 0
 417 225 440 248 440 275 c 0
 440 302 417 325 390 325 c 0
 363 325 340 302 340 275 c 0
 340 248 363 225 390 225 c 0
EndSplineSet
EndChar

StartChar: uni229B
Encoding: 108 8859 108
Width: 780
Flags: W
VStem: 90 100<232.921 317.079> 590 100<232.921 317.079>
LayerCount: 2
Back
Fore
SplineSet
433 350 m 1
 526 421 l 1
 504 442 477 457 449 466 c 1
 433 350 l 1
347 350 m 1
 331 466 l 1
 303 457 276 442 254 421 c 1
 347 350 l 1
303 275 m 1
 195 319 l 1
 192 305 190 290 190 275 c 0
 190 260 192 245 195 231 c 1
 303 275 l 1
347 200 m 1
 254 129 l 1
 276 108 303 93 331 84 c 1
 347 200 l 1
433 200 m 1
 449 84 l 1
 477 93 504 108 526 129 c 1
 433 200 l 1
477 275 m 1
 585 231 l 1
 588 245 590 260 590 275 c 0
 590 290 588 305 585 319 c 1
 477 275 l 1
690 275 m 0
 690 195 658 119 602 63 c 0
 546 7 470 -25 390 -25 c 0
 310 -25 234 7 178 63 c 0
 122 119 90 195 90 275 c 0
 90 355 122 431 178 487 c 0
 234 543 310 575 390 575 c 0
 470 575 546 543 602 487 c 0
 658 431 690 355 690 275 c 0
EndSplineSet
EndChar

StartChar: uni229D
Encoding: 109 8861 109
Width: 780
Flags: W
HStem: -25 100<303.229 476.771> 225 100<223 557> 475 100<303.229 476.771>
VStem: 90 100<188.229 361.771> 590 100<188.229 361.771>
CounterMasks: 1 e0
LayerCount: 2
Back
Fore
SplineSet
690 275 m 0
 690 195 658 119 602 63 c 0
 546 7 470 -25 390 -25 c 0
 310 -25 234 7 178 63 c 0
 122 119 90 195 90 275 c 0
 90 355 122 431 178 487 c 0
 234 543 310 575 390 575 c 0
 470 575 546 543 602 487 c 0
 658 431 690 355 690 275 c 0
390 75 m 0
 499 75 590 166 590 275 c 0
 590 384 499 475 390 475 c 0
 281 475 190 384 190 275 c 0
 190 166 281 75 390 75 c 0
223 225 m 1
 223 325 l 1
 557 325 l 1
 557 225 l 1
 223 225 l 1
EndSplineSet
EndChar

StartChar: uni229C
Encoding: 110 8860 110
Width: 780
Flags: W
HStem: -25 100<302.04 477.96> 148 100<236 544> 302 100<236 544> 475 100<302.04 477.96>
VStem: 90 100<184.671 365.329> 590 100<184.671 365.329>
LayerCount: 2
Back
Fore
SplineSet
544 402 m 1
 507 446 451 475 390 475 c 0
 329 475 273 446 236 402 c 1
 544 402 l 1
236 148 m 1
 273 104 329 75 390 75 c 0
 451 75 507 104 544 148 c 1
 236 148 l 1
557 165 m 1
 578 197 590 236 590 275 c 0
 590 314 578 353 557 385 c 1
 557 302 l 1
 223 302 l 1
 223 385 l 1
 202 353 190 314 190 275 c 0
 190 236 202 197 223 165 c 1
 223 248 l 1
 557 248 l 1
 557 165 l 1
690 275 m 0
 690 195 658 119 602 63 c 0
 546 7 470 -25 390 -25 c 0
 310 -25 234 7 178 63 c 0
 122 119 90 195 90 275 c 0
 90 355 122 431 178 487 c 0
 234 543 310 575 390 575 c 0
 470 575 546 543 602 487 c 0
 658 431 690 355 690 275 c 0
EndSplineSet
EndChar

StartChar: emptyset
Encoding: 111 8709 111
Width: 780
Flags: W
HStem: -25 100<300.202 476.771> 475 100<303.229 479.798>
VStem: 90 100<185.202 361.771> 590 100<188.229 364.798>
LayerCount: 2
Back
Fore
SplineSet
390 475 m 0
 281 475 190 384 190 275 c 0
 190 239 200 203 218 173 c 1
 492 447 l 1
 462 465 426 475 390 475 c 0
390 75 m 0
 499 75 590 166 590 275 c 0
 590 311 580 347 562 377 c 1
 288 103 l 1
 318 85 354 75 390 75 c 0
626 581 m 1
 696 511 l 1
 634 449 l 1
 670 399 690 338 690 275 c 0
 690 195 658 119 602 63 c 0
 546 7 470 -25 390 -25 c 0
 327 -25 266 -5 216 31 c 1
 154 -31 l 1
 84 39 l 1
 146 101 l 1
 110 151 90 212 90 275 c 0
 90 355 122 431 178 487 c 0
 234 543 310 575 390 575 c 0
 453 575 514 555 564 519 c 1
 626 581 l 1
EndSplineSet
EndChar

StartChar: uni29B0
Encoding: 112 10672 112
Width: 780
Flags: W
HStem: -25 100<303.229 479.798> 475 100<300.202 476.771>
VStem: 90 100<188.229 364.798> 590 100<185.202 361.771>
LayerCount: 2
Back
Fore
SplineSet
190 275 m 0
 190 166 281 75 390 75 c 0
 426 75 462 85 492 103 c 1
 218 377 l 1
 200 347 190 311 190 275 c 0
590 275 m 0
 590 384 499 475 390 475 c 0
 354 475 318 465 288 447 c 1
 562 173 l 1
 580 203 590 239 590 275 c 0
696 39 m 1
 626 -31 l 1
 564 31 l 1
 514 -5 453 -25 390 -25 c 0
 310 -25 234 7 178 63 c 0
 122 119 90 195 90 275 c 0
 90 338 110 399 146 449 c 1
 84 511 l 1
 154 581 l 1
 216 519 l 1
 266 555 327 575 390 575 c 0
 470 575 546 543 602 487 c 0
 658 431 690 355 690 275 c 0
 690 212 670 151 634 101 c 1
 696 39 l 1
EndSplineSet
EndChar

StartChar: uni25EF
Encoding: 113 9711 113
Width: 1044
Flags: W
HStem: -157 100<406.424 637.745> 607 100<406.424 637.745>
VStem: 90 100<159.424 390.745> 854 100<159.424 390.745>
LayerCount: 2
Back
Fore
SplineSet
954 275 m 0
 954 160 908 51 827 -30 c 0
 746 -111 637 -157 522 -157 c 0
 407 -157 298 -111 217 -30 c 0
 136 51 90 160 90 275 c 0
 90 390 136 499 217 580 c 0
 298 661 407 707 522 707 c 0
 637 707 746 661 827 580 c 0
 908 499 954 390 954 275 c 0
854 275 m 0
 854 363 819 448 757 510 c 0
 695 572 610 607 522 607 c 0
 434 607 350 572 287 510 c 0
 225 448 190 363 190 275 c 0
 190 187 225 103 287 40 c 0
 350 -22 434 -57 522 -57 c 0
 610 -57 695 -22 757 40 c 0
 819 103 854 187 854 275 c 0
EndSplineSet
EndChar

StartChar: uni2B24
Encoding: 114 11044 114
Width: 1044
Flags: W
HStem: -157 864<391.292 652.708>
VStem: 90 864<144.292 405.708>
LayerCount: 2
Back
Fore
SplineSet
954 275 m 0
 954 160 908 51 827 -30 c 0
 746 -111 637 -157 522 -157 c 0
 407 -157 298 -111 217 -30 c 0
 136 51 90 160 90 275 c 0
 90 390 136 499 217 580 c 0
 298 661 407 707 522 707 c 0
 637 707 746 661 827 580 c 0
 908 499 954 390 954 275 c 0
EndSplineSet
EndChar

StartChar: uni25AB
Encoding: 115 9643 115
Width: 519
Flags: W
HStem: 105 100<190 329> 345 100<190 329>
VStem: 90 100<205 345> 329 100<205 345>
LayerCount: 2
Back
Fore
SplineSet
429 445 m 1
 429 105 l 1
 90 105 l 1
 90 445 l 1
 429 445 l 1
329 345 m 1
 190 345 l 1
 190 205 l 1
 329 205 l 1
 329 345 l 1
EndSplineSet
EndChar

StartChar: uni25AA
Encoding: 116 9642 116
Width: 519
Flags: W
HStem: 105 340<90 429>
VStem: 90 339<105 445>
LayerCount: 2
Back
Fore
SplineSet
429 445 m 1
 429 105 l 1
 90 105 l 1
 90 445 l 1
 429 445 l 1
EndSplineSet
EndChar

StartChar: uni25A1
Encoding: 117 9633 117
Width: 710
Flags: W
HStem: 10 100<190 520> 440 100<190 520>
VStem: 90 100<110 440> 520 100<110 440>
LayerCount: 2
Back
Fore
SplineSet
620 540 m 1
 620 10 l 1
 90 10 l 1
 90 540 l 1
 620 540 l 1
520 440 m 1
 190 440 l 1
 190 110 l 1
 520 110 l 1
 520 440 l 1
EndSplineSet
EndChar

StartChar: uni25A0
Encoding: 118 9632 118
Width: 710
Flags: W
HStem: 10 530<90 620>
VStem: 90 530<10 540>
LayerCount: 2
Back
Fore
SplineSet
620 540 m 1
 620 10 l 1
 90 10 l 1
 90 540 l 1
 620 540 l 1
EndSplineSet
EndChar

StartChar: uni229F
Encoding: 119 8863 119
Width: 710
Flags: W
HStem: 10 100<190 520> 225 100<190 520> 440 100<190 520>
VStem: 90 100<110 225 325 440> 520 100<110 225 325 440>
CounterMasks: 1 e0
LayerCount: 2
Back
Fore
SplineSet
520 225 m 1
 190 225 l 1
 190 110 l 1
 520 110 l 1
 520 225 l 1
620 540 m 1
 620 10 l 1
 90 10 l 1
 90 540 l 1
 620 540 l 1
520 440 m 1
 190 440 l 1
 190 325 l 1
 520 325 l 1
 520 440 l 1
EndSplineSet
EndChar

StartChar: uni25EB
Encoding: 120 9707 120
Width: 710
Flags: W
HStem: 10 100<190 305 405 520> 440 100<190 305 405 520>
VStem: 90 100<110 440> 305 100<110 440> 520 100<110 440>
CounterMasks: 1 38
LayerCount: 2
Back
Fore
SplineSet
305 110 m 1
 305 440 l 1
 190 440 l 1
 190 110 l 1
 305 110 l 1
405 110 m 1
 520 110 l 1
 520 440 l 1
 405 440 l 1
 405 110 l 1
620 540 m 1
 620 10 l 1
 90 10 l 1
 90 540 l 1
 620 540 l 1
EndSplineSet
EndChar

StartChar: uni29C4
Encoding: 121 10692 121
Width: 710
Flags: W
HStem: 10 100<261 520> 440 100<190 449>
VStem: 90 100<180 440> 520 100<110 369>
LayerCount: 2
Back
Fore
SplineSet
190 180 m 1
 449 440 l 1
 190 440 l 1
 190 180 l 1
520 369 m 1
 261 110 l 1
 520 110 l 1
 520 369 l 1
620 540 m 1
 620 10 l 1
 90 10 l 1
 90 540 l 1
 620 540 l 1
EndSplineSet
EndChar

StartChar: uni29C5
Encoding: 122 10693 122
Width: 710
Flags: W
HStem: 10 100<190 449> 440 100<261 520>
VStem: 90 100<110 370> 520 100<181 440>
LayerCount: 2
Back
Fore
SplineSet
449 110 m 1
 190 370 l 1
 190 110 l 1
 449 110 l 1
520 181 m 1
 520 440 l 1
 261 440 l 1
 520 181 l 1
620 540 m 1
 620 10 l 1
 90 10 l 1
 90 540 l 1
 620 540 l 1
EndSplineSet
EndChar

StartChar: uni229E
Encoding: 123 8862 123
Width: 710
Flags: W
HStem: 10 100<190 305 405 520> 225 100<190 305 405 520> 440 100<190 305 405 520>
VStem: 90 100<110 225 325 440> 305 100<110 225 325 440> 520 100<110 225 325 440>
CounterMasks: 1 fc
LayerCount: 2
Back
Fore
SplineSet
305 225 m 1
 190 225 l 1
 190 110 l 1
 305 110 l 1
 305 225 l 1
405 225 m 1
 405 110 l 1
 520 110 l 1
 520 225 l 1
 405 225 l 1
305 325 m 1
 305 440 l 1
 190 440 l 1
 190 325 l 1
 305 325 l 1
405 325 m 1
 520 325 l 1
 520 440 l 1
 405 440 l 1
 405 325 l 1
620 540 m 1
 620 10 l 1
 90 10 l 1
 90 540 l 1
 620 540 l 1
EndSplineSet
EndChar

StartChar: uni22A0
Encoding: 124 8864 124
Width: 710
Flags: W
HStem: 10 100<261 449> 440 100<261 449>
VStem: 90 100<180 370> 520 100<181 369>
LayerCount: 2
Back
Fore
SplineSet
355 204 m 1
 261 110 l 1
 449 110 l 1
 355 204 l 1
426 275 m 1
 520 181 l 1
 520 369 l 1
 426 275 l 1
285 275 m 1
 190 370 l 1
 190 180 l 1
 285 275 l 1
355 346 m 1
 449 440 l 1
 261 440 l 1
 355 346 l 1
620 540 m 1
 620 10 l 1
 90 10 l 1
 90 540 l 1
 620 540 l 1
EndSplineSet
EndChar

StartChar: uni22A1
Encoding: 125 8865 125
Width: 710
Flags: W
HStem: 10 100<190 520> 169 212<313.313 396.95> 440 100<190 520>
VStem: 90 100<110 440> 249 212<233.05 316.95> 520 100<110 440>
CounterMasks: 1 fc
LayerCount: 2
Back
Fore
SplineSet
620 540 m 1
 620 10 l 1
 90 10 l 1
 90 540 l 1
 620 540 l 1
520 440 m 1
 190 440 l 1
 190 110 l 1
 520 110 l 1
 520 440 l 1
461 275 m 0
 461 254 438 230 419 211 c 0
 400 192 376 169 355 169 c 0
 334 169 310 192 292 211 c 0
 273 230 249 254 249 275 c 0
 249 296 273 320 292 339 c 0
 310 358 334 381 355 381 c 0
 376 381 400 358 419 339 c 0
 438 320 461 296 461 275 c 0
EndSplineSet
EndChar

StartChar: uni29C8
Encoding: 126 10696 126
Width: 710
Flags: W
HStem: 10 100<190 520> 149 80<309 401> 321 80<309 401> 440 100<190 520>
VStem: 90 100<110 440> 229 80<229 321> 401 80<229 321> 520 100<110 440>
LayerCount: 2
Back
Fore
SplineSet
620 540 m 1
 620 10 l 1
 90 10 l 1
 90 540 l 1
 620 540 l 1
520 440 m 1
 190 440 l 1
 190 110 l 1
 520 110 l 1
 520 440 l 1
481 401 m 1
 481 149 l 1
 229 149 l 1
 229 401 l 1
 481 401 l 1
401 321 m 1
 309 321 l 1
 309 229 l 1
 401 229 l 1
 401 321 l 1
EndSplineSet
EndChar

StartChar: uni2B1C
Encoding: 127 11036 127
Width: 944
Flags: W
HStem: -107 100<190 754> 557 100<190 754>
VStem: 90 100<-7 557> 754 100<-7 557>
LayerCount: 2
Back
Fore
SplineSet
854 657 m 1
 854 -107 l 1
 90 -107 l 1
 90 657 l 1
 854 657 l 1
754 557 m 1
 190 557 l 1
 190 -7 l 1
 754 -7 l 1
 754 557 l 1
EndSplineSet
EndChar

StartChar: uni2B1B
Encoding: 128 11035 128
Width: 944
Flags: W
HStem: -107 764<90 854>
VStem: 90 764<-107 657>
LayerCount: 2
Back
Fore
SplineSet
854 657 m 1
 854 -107 l 1
 90 -107 l 1
 90 657 l 1
 854 657 l 1
EndSplineSet
EndChar

StartChar: uni22C4
Encoding: 129 8900 129
Width: 660
Flags: W
LayerCount: 2
Back
Fore
SplineSet
330 536 m 1
 591 275 l 1
 330 14 l 1
 69 275 l 1
 330 536 l 1
330 394 m 1
 211 275 l 1
 330 156 l 1
 449 275 l 1
 330 394 l 1
EndSplineSet
EndChar

StartChar: uni2B29
Encoding: 130 11049 130
Width: 660
Flags: W
LayerCount: 2
Back
Fore
SplineSet
330 536 m 1
 591 275 l 1
 330 14 l 1
 69 275 l 1
 330 536 l 1
EndSplineSet
EndChar

StartChar: uni25C7
Encoding: 131 9671 131
Width: 930
Flags: W
LayerCount: 2
Back
Fore
SplineSet
465 671 m 1
 861 275 l 1
 465 -121 l 1
 69 275 l 1
 465 671 l 1
465 529 m 1
 211 275 l 1
 465 21 l 1
 719 275 l 1
 465 529 l 1
EndSplineSet
EndChar

StartChar: uni25C6
Encoding: 132 9670 132
Width: 930
Flags: W
LayerCount: 2
Back
Fore
SplineSet
465 671 m 1
 861 275 l 1
 465 -121 l 1
 69 275 l 1
 465 671 l 1
EndSplineSet
EndChar

StartChar: sym011
Encoding: 133 -1 133
Width: 930
Flags: W
HStem: 225 100<261 669>
LayerCount: 2
Back
Fore
SplineSet
669 225 m 1
 261 225 l 1
 465 21 l 1
 669 225 l 1
669 325 m 1
 465 529 l 1
 261 325 l 1
 669 325 l 1
465 671 m 1
 861 275 l 1
 465 -121 l 1
 69 275 l 1
 465 671 l 1
EndSplineSet
EndChar

StartChar: sym012
Encoding: 134 -1 134
Width: 930
Flags: W
VStem: 415 100<71 479>
LayerCount: 2
Back
Fore
SplineSet
415 71 m 1
 415 479 l 1
 211 275 l 1
 415 71 l 1
515 479 m 1
 515 71 l 1
 719 275 l 1
 515 479 l 1
465 671 m 1
 861 275 l 1
 465 -121 l 1
 69 275 l 1
 465 671 l 1
EndSplineSet
EndChar

StartChar: sym013
Encoding: 135 -1 135
Width: 930
Flags: W
LayerCount: 2
Back
Fore
SplineSet
628 366 m 1
 374 112 l 1
 465 21 l 1
 719 275 l 1
 628 366 l 1
465 671 m 1
 861 275 l 1
 465 -121 l 1
 69 275 l 1
 465 671 l 1
465 529 m 1
 211 275 l 1
 302 184 l 1
 556 438 l 1
 465 529 l 1
EndSplineSet
EndChar

StartChar: sym014
Encoding: 136 -1 136
Width: 930
Flags: W
LayerCount: 2
Back
Fore
SplineSet
556 112 m 1
 302 366 l 1
 211 275 l 1
 465 21 l 1
 556 112 l 1
628 184 m 1
 719 275 l 1
 465 529 l 1
 374 438 l 1
 628 184 l 1
465 671 m 1
 861 275 l 1
 465 -121 l 1
 69 275 l 1
 465 671 l 1
EndSplineSet
EndChar

StartChar: sym015
Encoding: 137 -1 137
Width: 930
Flags: W
HStem: 225 100<261 415 515 669>
VStem: 415 100<71 225 325 479>
LayerCount: 2
Back
Fore
SplineSet
415 225 m 1
 261 225 l 1
 415 71 l 1
 415 225 l 1
515 225 m 1
 515 71 l 1
 669 225 l 1
 515 225 l 1
415 325 m 1
 415 479 l 1
 261 325 l 1
 415 325 l 1
515 325 m 1
 669 325 l 1
 515 479 l 1
 515 325 l 1
465 671 m 1
 861 275 l 1
 465 -121 l 1
 69 275 l 1
 465 671 l 1
EndSplineSet
EndChar

StartChar: sym016
Encoding: 138 -1 138
Width: 930
Flags: W
LayerCount: 2
Back
Fore
SplineSet
465 204 m 1
 374 112 l 1
 465 21 l 1
 556 112 l 1
 465 204 l 1
536 275 m 1
 628 184 l 1
 719 275 l 1
 628 366 l 1
 536 275 l 1
394 275 m 1
 302 366 l 1
 211 275 l 1
 302 184 l 1
 394 275 l 1
465 346 m 1
 556 438 l 1
 465 529 l 1
 374 438 l 1
 465 346 l 1
465 671 m 1
 861 275 l 1
 465 -121 l 1
 69 275 l 1
 465 671 l 1
EndSplineSet
EndChar

StartChar: uni27D0
Encoding: 139 10192 139
Width: 930
Flags: W
HStem: 169 212<423.05 506.95>
VStem: 359 212<233.05 316.95>
LayerCount: 2
Back
Fore
SplineSet
465 671 m 1
 861 275 l 1
 465 -121 l 1
 69 275 l 1
 465 671 l 1
465 529 m 1
 211 275 l 1
 465 21 l 1
 719 275 l 1
 465 529 l 1
571 275 m 0
 571 254 548 230 529 211 c 0
 510 192 486 169 465 169 c 0
 444 169 420 192 401 211 c 0
 383 230 359 254 359 275 c 0
 359 296 383 320 401 339 c 0
 420 358 444 381 465 381 c 0
 486 381 510 358 529 339 c 0
 548 320 571 296 571 275 c 0
EndSplineSet
EndChar

StartChar: sym017
Encoding: 140 -1 140
Width: 930
Flags: W
LayerCount: 2
Back
Fore
SplineSet
465 671 m 1
 861 275 l 1
 465 -121 l 1
 69 275 l 1
 465 671 l 1
465 529 m 1
 211 275 l 1
 465 21 l 1
 719 275 l 1
 465 529 l 1
465 462 m 1
 652 275 l 1
 465 88 l 1
 278 275 l 1
 465 462 l 1
465 348 m 1
 392 275 l 1
 465 202 l 1
 538 275 l 1
 465 348 l 1
EndSplineSet
EndChar

StartChar: uni2B2B
Encoding: 141 11051 141
Width: 580
Flags: W
LayerCount: 2
Back
Fore
SplineSet
90 275 m 1
 290 595 l 1
 490 275 l 1
 290 -45 l 1
 90 275 l 1
208 275 m 1
 290 144 l 1
 372 275 l 1
 290 406 l 1
 208 275 l 1
EndSplineSet
EndChar

StartChar: uni2B2A
Encoding: 142 11050 142
Width: 580
Flags: W
LayerCount: 2
Back
Fore
SplineSet
90 275 m 1
 290 595 l 1
 490 275 l 1
 290 -45 l 1
 90 275 l 1
EndSplineSet
EndChar

StartChar: lozenge
Encoding: 143 9674 143
Width: 710
Flags: W
LayerCount: 2
Back
Fore
SplineSet
90 275 m 1
 355 699 l 1
 620 275 l 1
 355 -149 l 1
 90 275 l 1
208 275 m 1
 355 39 l 1
 502 275 l 1
 355 511 l 1
 208 275 l 1
EndSplineSet
EndChar

StartChar: uni29EB
Encoding: 144 10731 144
Width: 710
Flags: W
LayerCount: 2
Back
Fore
SplineSet
90 275 m 1
 355 699 l 1
 620 275 l 1
 355 -149 l 1
 90 275 l 1
EndSplineSet
EndChar

StartChar: uni27E0
Encoding: 145 10208 145
Width: 710
Flags: W
HStem: 225 100<239 471>
LayerCount: 2
Back
Fore
SplineSet
471 225 m 1
 239 225 l 1
 355 39 l 1
 471 225 l 1
239 325 m 1
 471 325 l 1
 355 511 l 1
 239 325 l 1
90 275 m 1
 355 699 l 1
 620 275 l 1
 355 -149 l 1
 90 275 l 1
EndSplineSet
EndChar

StartChar: uni2B52
Encoding: 146 11090 146
Width: 780
Flags: W
HStem: 276 80<289 308 472 491>
LayerCount: 2
Back
Fore
SplineSet
390 593 m 1
 472 356 l 1
 723 351 l 1
 523 200 l 1
 596 -40 l 1
 390 103 l 1
 184 -40 l 1
 257 200 l 1
 57 351 l 1
 308 356 l 1
 390 593 l 1
390 350 m 1
 365 278 l 1
 289 276 l 1
 350 230 l 1
 327 157 l 1
 390 201 l 1
 453 157 l 1
 430 230 l 1
 491 276 l 1
 415 278 l 1
 390 350 l 1
EndSplineSet
EndChar

StartChar: uni22C6
Encoding: 147 8902 147
Width: 660
Flags: W
LayerCount: 2
Back
Fore
SplineSet
330 539 m 1
 398 342 l 1
 606 338 l 1
 440 213 l 1
 500 14 l 1
 330 133 l 1
 160 14 l 1
 220 213 l 1
 54 338 l 1
 262 342 l 1
 330 539 l 1
EndSplineSet
EndChar

StartChar: uni2B50
Encoding: 148 11088 148
Width: 930
Flags: W
LayerCount: 2
Back
Fore
SplineSet
465 661 m 1
 565 374 l 1
 869 368 l 1
 627 184 l 1
 715 -107 l 1
 465 66 l 1
 215 -107 l 1
 303 184 l 1
 61 368 l 1
 365 374 l 1
 465 661 l 1
465 357 m 1
 437 275 l 1
 350 274 l 1
 419 221 l 1
 394 139 l 1
 465 188 l 1
 536 139 l 1
 511 221 l 1
 580 274 l 1
 493 275 l 1
 465 357 l 1
EndSplineSet
EndChar

StartChar: uni2B51
Encoding: 149 11089 149
Width: 930
Flags: W
LayerCount: 2
Back
Fore
SplineSet
465 661 m 1
 565 374 l 1
 869 368 l 1
 627 184 l 1
 715 -107 l 1
 465 66 l 1
 215 -107 l 1
 303 184 l 1
 61 368 l 1
 365 374 l 1
 465 661 l 1
EndSplineSet
EndChar

StartChar: uni2606
Encoding: 150 9734 150
Width: 1260
Flags: W
HStem: 310 102<359 491 769 901>
LayerCount: 2
Back
Fore
SplineSet
630 811 m 1
 769 412 l 1
 1191 404 l 1
 854 148 l 1
 977 -256 l 1
 630 -15 l 1
 283 -256 l 1
 406 148 l 1
 69 404 l 1
 491 412 l 1
 630 811 l 1
630 507 m 1
 563 314 l 1
 359 310 l 1
 521 186 l 1
 462 -10 l 1
 630 107 l 1
 798 -10 l 1
 739 186 l 1
 901 310 l 1
 697 314 l 1
 630 507 l 1
EndSplineSet
EndChar

StartChar: uni2605
Encoding: 151 9733 151
Width: 1260
Flags: W
LayerCount: 2
Back
Fore
SplineSet
630 811 m 1
 769 412 l 1
 1191 404 l 1
 854 148 l 1
 977 -256 l 1
 630 -15 l 1
 283 -256 l 1
 406 148 l 1
 69 404 l 1
 491 412 l 1
 630 811 l 1
EndSplineSet
EndChar

StartChar: asteriskmath
Encoding: 152 8727 152
Width: 660
Flags: W
LayerCount: 2
Back
Fore
SplineSet
418 275 m 1
 571 213 l 1
 505 97 l 1
 374 199 l 1
 397 35 l 1
 263 35 l 1
 286 199 l 1
 155 97 l 1
 89 213 l 1
 242 275 l 1
 89 337 l 1
 155 453 l 1
 286 351 l 1
 263 515 l 1
 397 515 l 1
 374 351 l 1
 505 453 l 1
 571 337 l 1
 418 275 l 1
EndSplineSet
EndChar

StartChar: infinity
Encoding: 153 8734 153
Width: 1044
Flags: W
HStem: 33 100<238.658 358.75 685.25 805.342> 417 100<238.658 358.75 685.25 805.342>
VStem: 90 100<188.175 361.825> 854 100<188.175 361.825>
LayerCount: 2
Back
Fore
SplineSet
587 275 m 1
 635 211 672 133 751 133 c 0
 817 133 854 203 854 275 c 0
 854 347 817 417 751 417 c 0
 672 417 635 339 587 275 c 1
522 348 m 1
 589 427 649 517 751 517 c 0
 871 517 954 402 954 275 c 0
 954 148 871 33 751 33 c 0
 649 33 589 123 522 202 c 1
 455 123 395 33 293 33 c 0
 173 33 90 148 90 275 c 0
 90 402 173 517 293 517 c 0
 395 517 455 427 522 348 c 1
457 275 m 1
 409 339 372 417 293 417 c 0
 227 417 190 347 190 275 c 0
 190 203 227 133 293 133 c 0
 372 133 409 211 457 275 c 1
EndSplineSet
EndChar

StartChar: proportional
Encoding: 154 8733 154
Width: 948
Flags: W
HStem: 33 100<239.083 360.467 692.875 858> 417 100<239.083 360.467 692.875 858>
VStem: 90 100<187.761 362.239>
LayerCount: 2
Back
Fore
SplineSet
457 275 m 1
 410 339 374 417 295 417 c 0
 229 417 190 348 190 275 c 0
 190 202 229 133 295 133 c 0
 374 133 410 211 457 275 c 1
858 517 m 1
 858 417 l 1
 760 417 l 2
 679 417 638 340 587 275 c 1
 638 210 679 133 760 133 c 2
 858 133 l 1
 858 33 l 1
 760 33 l 2
 656 33 592 123 522 202 c 1
 455 124 397 33 295 33 c 0
 174 33 90 147 90 275 c 0
 90 403 174 517 295 517 c 0
 397 517 455 426 522 348 c 1
 592 427 656 517 760 517 c 2
 858 517 l 1
EndSplineSet
EndChar

StartChar: sym018
Encoding: 155 -1 155
Width: 948
Flags: W
HStem: 33 100<90 255.125 587.533 708.917> 417 100<90 255.125 587.533 708.917>
VStem: 758 100<187.761 362.239>
LayerCount: 2
Back
Fore
SplineSet
491 275 m 1
 538 211 574 133 653 133 c 0
 719 133 758 202 758 275 c 0
 758 348 719 417 653 417 c 0
 574 417 538 339 491 275 c 1
90 33 m 1
 90 133 l 1
 188 133 l 2
 269 133 310 210 361 275 c 1
 310 340 269 417 188 417 c 2
 90 417 l 1
 90 517 l 1
 188 517 l 2
 292 517 356 427 426 348 c 1
 493 426 551 517 653 517 c 0
 774 517 858 403 858 275 c 0
 858 147 774 33 653 33 c 0
 551 33 493 124 426 202 c 1
 356 123 292 33 188 33 c 2
 90 33 l 1
EndSplineSet
EndChar

StartChar: sym019
Encoding: 156 -1 156
Width: 852
Flags: W
HStem: 33 100<90 255.125 596.875 762> 417 100<90 255.125 596.875 762>
LayerCount: 2
Back
Fore
SplineSet
90 517 m 1
 188 517 l 2
 292 517 356 427 426 348 c 1
 496 427 560 517 664 517 c 2
 762 517 l 1
 762 417 l 1
 664 417 l 2
 583 417 542 340 491 275 c 1
 542 210 583 133 664 133 c 2
 762 133 l 1
 762 33 l 1
 664 33 l 2
 560 33 496 123 426 202 c 1
 356 123 292 33 188 33 c 2
 90 33 l 1
 90 133 l 1
 188 133 l 2
 269 133 310 210 361 275 c 1
 310 340 269 417 188 417 c 2
 90 417 l 1
 90 517 l 1
EndSplineSet
EndChar

StartChar: uni226C
Encoding: 157 8812 157
Width: 473
Flags: W
VStem: 90 100<166.517 383.483> 282 100<166.517 383.483>
LayerCount: 2
Back
Fore
SplineSet
236 433 m 1
 207 385 190 332 190 275 c 0
 190 218 207 165 236 117 c 1
 264 165 282 218 282 275 c 0
 282 332 264 385 236 433 c 1
363 -21 m 1
 302 -100 l 1
 279 -82 257 -63 236 -42 c 1
 216 -63 194 -82 171 -100 c 1
 109 -21 l 1
 131 -4 152 14 171 34 c 1
 121 105 90 187 90 275 c 0
 90 363 121 445 171 516 c 1
 152 536 131 554 109 571 c 1
 171 650 l 1
 194 632 216 613 236 592 c 1
 257 613 279 632 302 650 c 1
 363 571 l 1
 341 554 320 536 301 516 c 1
 351 445 382 363 382 275 c 0
 382 187 351 105 301 34 c 1
 320 14 341 -4 363 -21 c 1
EndSplineSet
EndChar

StartChar: uni22BA
Encoding: 158 8890 158
Width: 565
Flags: W
HStem: -220 21G<232 332> 446 100<90 232 332 475>
VStem: 232 100<-220 446>
LayerCount: 2
Back
Fore
SplineSet
332 -220 m 1
 232 -220 l 1
 232 446 l 1
 90 446 l 1
 90 546 l 1
 475 546 l 1
 475 446 l 1
 332 446 l 1
 332 -220 l 1
EndSplineSet
EndChar

StartChar: uni2240
Encoding: 159 8768 159
Width: 408
Flags: W
HStem: 525 20G<187.438 230>
VStem: 90 100<108.548 208.521> 218 100<339.584 441.452>
LayerCount: 2
Back
Fore
SplineSet
151 481 m 1
 204 545 l 1
 256 502 318 460 318 393 c 0
 318 334 282 282 240 240 c 0
 216 216 190 190 190 157 c 0
 190 117 228 94 258 69 c 1
 204 5 l 1
 153 48 90 90 90 157 c 0
 90 216 126 268 169 310 c 0
 193 334 218 360 218 393 c 0
 218 433 181 456 151 481 c 1
EndSplineSet
EndChar

StartChar: angle
Encoding: 160 8736 160
Width: 720
Flags: W
HStem: 5 100<205 630> 533 20G<466.384 506.765>
LayerCount: 2
Back
Fore
SplineSet
630 105 m 1
 630 5 l 1
 99 5 l 1
 68 105 l 1
 485 553 l 1
 559 485 l 1
 205 105 l 1
 630 105 l 1
EndSplineSet
EndChar

StartChar: uni29A3
Encoding: 161 10659 161
Width: 720
Flags: W
HStem: 5 100<90 515> 533 20G<213.235 253.616>
LayerCount: 2
Back
Fore
SplineSet
90 105 m 1
 515 105 l 1
 161 485 l 1
 235 553 l 1
 652 105 l 1
 621 5 l 1
 90 5 l 1
 90 105 l 1
EndSplineSet
EndChar

StartChar: uni2221
Encoding: 162 8737 162
Width: 720
Flags: W
HStem: 5 100<205 396 494.255 630> 533 20G<466.384 506.765>
VStem: 396 101<105 177.555>
LayerCount: 2
Back
Fore
SplineSet
396 105 m 1
 388 156 367 204 335 245 c 1
 205 105 l 1
 396 105 l 1
630 105 m 1
 630 5 l 1
 99 5 l 1
 68 105 l 1
 485 553 l 1
 559 485 l 1
 404 319 l 1
 455 259 487 184 497 105 c 1
 630 105 l 1
EndSplineSet
EndChar

StartChar: uni299B
Encoding: 163 10651 163
Width: 720
Flags: W
HStem: 5 100<90 225.745 324 515> 533 20G<213.235 253.616>
VStem: 223 101<105 177.555>
LayerCount: 2
Back
Fore
SplineSet
385 245 m 1
 353 204 332 156 324 105 c 1
 515 105 l 1
 385 245 l 1
316 319 m 1
 161 485 l 1
 235 553 l 1
 652 105 l 1
 621 5 l 1
 90 5 l 1
 90 105 l 1
 223 105 l 1
 233 184 265 259 316 319 c 1
EndSplineSet
EndChar

StartChar: uni2222
Encoding: 164 8738 164
Width: 720
Flags: W
VStem: 447 100<200.429 349.571>
LayerCount: 2
Back
Fore
SplineSet
432 199 m 1
 442 223 447 249 447 275 c 0
 447 301 442 327 432 351 c 1
 262 275 l 1
 432 199 l 1
589 531 m 1
 630 440 l 1
 523 392 l 1
 539 355 547 315 547 275 c 0
 547 235 539 195 523 158 c 1
 630 110 l 1
 589 19 l 1
 90 243 l 1
 90 307 l 1
 589 531 l 1
EndSplineSet
EndChar

StartChar: uni29A1
Encoding: 165 10657 165
Width: 720
Flags: W
HStem: 362 100<285.429 434.571> 525 20G<150.61 203.972 516.028 569.39>
LayerCount: 2
Back
Fore
SplineSet
436 347 m 1
 412 357 386 362 360 362 c 0
 334 362 308 357 284 347 c 1
 360 177 l 1
 436 347 l 1
104 504 m 1
 195 545 l 1
 243 438 l 1
 280 454 320 462 360 462 c 0
 400 462 440 454 477 438 c 1
 525 545 l 1
 616 504 l 1
 392 5 l 1
 328 5 l 1
 104 504 l 1
EndSplineSet
EndChar

StartChar: uni29A0
Encoding: 166 10656 166
Width: 720
Flags: W
VStem: 173 100<200.429 349.571>
LayerCount: 2
Back
Fore
SplineSet
288 351 m 1
 278 327 273 301 273 275 c 0
 273 249 278 223 288 199 c 1
 458 275 l 1
 288 351 l 1
131 19 m 1
 90 110 l 1
 197 158 l 1
 181 195 173 235 173 275 c 0
 173 315 181 355 197 392 c 1
 90 440 l 1
 131 531 l 1
 630 307 l 1
 630 243 l 1
 131 19 l 1
EndSplineSet
EndChar

StartChar: sym01A
Encoding: 167 -1 167
Width: 720
Flags: W
HStem: 88 100<285.429 434.571> 525 20G<319.022 400.978>
LayerCount: 2
Back
Fore
SplineSet
284 203 m 1
 308 193 334 188 360 188 c 0
 386 188 412 193 436 203 c 1
 360 373 l 1
 284 203 l 1
616 46 m 1
 525 5 l 1
 477 112 l 1
 440 96 400 88 360 88 c 0
 320 88 280 96 243 112 c 1
 195 5 l 1
 104 46 l 1
 328 545 l 1
 392 545 l 1
 616 46 l 1
EndSplineSet
EndChar

StartChar: uni221F
Encoding: 168 8735 168
Width: 720
Flags: W
HStem: 5 100<190 630> 525 20G<90 190>
VStem: 90 100<105 545>
LayerCount: 2
Back
Fore
SplineSet
90 545 m 1
 190 545 l 1
 190 105 l 1
 630 105 l 1
 630 5 l 1
 450 5 270 5 90 5 c 1
 90 185 90 365 90 545 c 1
EndSplineSet
EndChar

StartChar: uni22BE
Encoding: 169 8894 169
Width: 720
Flags: W
HStem: 5 100<190 354 454 630> 269 100<190 268.579> 525 20G<90 190>
VStem: 90 100<105 269 369 545> 354 100<105 183.579>
LayerCount: 2
Back
Fore
SplineSet
354 105 m 1
 354 196 281 269 190 269 c 1
 190 105 l 1
 354 105 l 1
90 545 m 1
 190 545 l 1
 190 369 l 1
 336 369 454 251 454 105 c 1
 630 105 l 1
 630 5 l 1
 450 5 270 5 90 5 c 1
 90 185 90 365 90 545 c 1
EndSplineSet
EndChar

StartChar: uni299C
Encoding: 170 10652 170
Width: 720
Flags: W
HStem: 5 100<190 310 410 630> 225 100<190 310> 525 20G<90 190>
VStem: 90 100<105 225 325 545> 310 100<105 225>
LayerCount: 2
Back
Fore
SplineSet
310 225 m 1
 190 225 l 1
 190 105 l 1
 310 105 l 1
 310 225 l 1
90 545 m 1
 190 545 l 1
 190 325 l 1
 263 325 337 325 410 325 c 1
 410 252 410 178 410 105 c 1
 630 105 l 1
 630 5 l 1
 450 5 270 5 90 5 c 1
 90 185 90 365 90 545 c 1
EndSplineSet
EndChar

StartChar: uni299D
Encoding: 171 10653 171
Width: 720
Flags: W
HStem: 5 100<190 354 454 630> 112 106<217.148 282.852> 269 100<190 268.579> 525 20G<90 190>
VStem: 90 100<105 269 369 545> 197 106<132.148 197.852> 354 100<105 183.579>
LayerCount: 2
Back
Fore
SplineSet
354 105 m 1
 354 196 281 269 190 269 c 1
 190 105 l 1
 354 105 l 1
90 545 m 1
 190 545 l 1
 190 369 l 1
 336 369 454 251 454 105 c 1
 630 105 l 1
 630 5 l 1
 450 5 270 5 90 5 c 1
 90 185 90 365 90 545 c 1
303 165 m 0
 303 154 291 143 282 133 c 0
 272 124 261 112 250 112 c 0
 239 112 228 124 218 133 c 0
 209 143 197 154 197 165 c 0
 197 176 209 187 218 197 c 0
 228 206 239 218 250 218 c 0
 261 218 272 206 282 197 c 0
 291 187 303 176 303 165 c 0
EndSplineSet
EndChar

StartChar: minute
Encoding: 172 8242 172
Width: 280
Flags: W
VStem: 60 220
LayerCount: 2
Back
Fore
SplineSet
280 603 m 1
 193 67 l 1
 60 67 l 1
 120 603 l 1
 280 603 l 1
EndSplineSet
EndChar

StartChar: uni2035
Encoding: 173 8245 173
Width: 280
Flags: W
VStem: 0 220
LayerCount: 2
Back
Fore
SplineSet
0 603 m 1
 160 603 l 1
 220 67 l 1
 87 67 l 1
 0 603 l 1
EndSplineSet
EndChar

StartChar: product.small
Encoding: 174 -1 174
Width: 720
Flags: W
HStem: 5 62<101 134.925 272.075 306 414 447.925 585.075 619> 445 100<272 448> 483 62<93 134.931 585.069 627>
VStem: 135 137<73.8941 445> 448 137<73.8941 445>
LayerCount: 2
Back
Fore
SplineSet
101 5 m 1xd8
 90 67 l 1
 109 72 135 79 135 90 c 2
 135 460 l 2
 135 471 111 478 93 483 c 1
 90 545 l 1
 630 545 l 1
 627 483 l 1xb8
 609 478 585 471 585 460 c 2
 585 90 l 2
 585 79 611 72 630 67 c 1
 619 5 l 1
 414 5 l 1
 403 67 l 1
 422 72 448 79 448 90 c 2
 448 445 l 1
 272 445 l 1
 272 90 l 2
 272 79 298 72 317 67 c 1
 306 5 l 1
 101 5 l 1xd8
EndSplineSet
EndChar

StartChar: product.sf.small
Encoding: 175 -1 175
Width: 720
Flags: W
HStem: 412 133<90 140 273 447 580 630>
VStem: 140 133<5 412> 447 133<5 412>
LayerCount: 2
Back
Fore
SplineSet
140 5 m 1
 140 412 l 1
 90 412 l 1
 90 545 l 1
 630 545 l 1
 630 412 l 1
 580 412 l 1
 580 5 l 1
 447 5 l 1
 447 412 l 1
 273 412 l 1
 273 5 l 1
 140 5 l 1
EndSplineSet
EndChar

StartChar: uni2A3F
Encoding: 176 10815 176
Width: 720
Flags: W
HStem: 5 100<272 448> 5 62<93 134.931 585.069 627> 483 62<101 134.925 272.075 306 414 447.925 585.075 619>
VStem: 135 137<105 476.106> 448 137<105 476.106>
LayerCount: 2
Back
Fore
SplineSet
101 545 m 1x78
 306 545 l 1
 317 483 l 1
 298 478 272 471 272 460 c 2
 272 105 l 1
 448 105 l 1xb8
 448 460 l 2
 448 471 422 478 403 483 c 1
 414 545 l 1
 619 545 l 1
 630 483 l 1
 611 478 585 471 585 460 c 2
 585 90 l 2
 585 79 609 72 627 67 c 1
 630 5 l 1
 90 5 l 1
 93 67 l 1
 111 72 135 79 135 90 c 2
 135 460 l 2
 135 471 109 478 90 483 c 1
 101 545 l 1x78
EndSplineSet
EndChar

StartChar: uni2A3F.sf
Encoding: 177 -1 177
Width: 720
Flags: W
HStem: 5 133<90 140 273 447 580 630> 525 20G<140 273 447 580>
VStem: 140 133<138 545> 447 133<138 545>
LayerCount: 2
Back
Fore
SplineSet
140 545 m 1
 273 545 l 1
 273 138 l 1
 447 138 l 1
 447 545 l 1
 580 545 l 1
 580 138 l 1
 630 138 l 1
 630 5 l 1
 90 5 l 1
 90 138 l 1
 140 138 l 1
 140 545 l 1
EndSplineSet
EndChar

StartChar: integral.small
Encoding: 178 -1 178
Width: 482
Flags: W
HStem: -2 113<115 163.428> 645 110<314.556 384.607>
VStem: 174 133<117.034 638.598>
LayerCount: 2
Back
Fore
SplineSet
410 746 m 1
 381 637 l 1
 370 642 357 645 345 645 c 0
 321 645 307 620 307 593 c 2
 307 168 l 2
 307 73 230 -2 138 -2 c 0
 130 -2 123 -1 115 0 c 1
 100 111 l 1
 137 111 l 2
 162 111 174 140 174 168 c 2
 174 593 l 2
 174 686 256 755 350 755 c 0
 373 755 391 752 410 746 c 1
EndSplineSet
EndChar

StartChar: uni2713
Encoding: 179 10003 179
Width: 940
Flags: W
HStem: 0 21G<209.256 386>
LayerCount: 2
Back
Fore
SplineSet
90 242 m 1
 205 308 l 1
 289 153 l 1
 405 375 530 596 721 756 c 0
 732 765 744 768 757 768 c 0
 784 768 815 754 844 754 c 1
 850 721 l 1
 827 710 805 696 786 680 c 0
 573 501 452 244 320 0 c 1
 220 0 l 1
 90 242 l 1
EndSplineSet
EndChar

StartChar: uni21AF
Encoding: 180 8623 180
Width: 640
Flags: W
HStem: 530 20G<475.556 540.49>
LayerCount: 2
Back
Fore
SplineSet
189 -111 m 1
 94 92 l 1
 185 135 l 1
 207 87 l 1
 315 383 l 1
 150 339 l 1
 388 942 l 1
 529 891 l 1
 349 496 l 1
 550 550 l 1
 317 60 l 1
 350 75 l 1
 392 -16 l 1
 189 -111 l 1
EndSplineSet
EndChar

StartChar: uni2662
Encoding: 181 9826 181
Width: 780
Flags: W
HStem: 0 21G<345 435> 687 20G<345 435>
LayerCount: 2
Back
Fore
SplineSet
390 0 m 1
 300 126 200 245 90 354 c 1
 200 462 300 581 390 707 c 1
 480 581 580 462 690 354 c 1
 580 245 480 126 390 0 c 1
390 155 m 1
 440 226 497 292 559 354 c 1
 497 415 440 481 390 552 c 1
 340 481 283 415 221 354 c 1
 283 292 340 226 390 155 c 1
EndSplineSet
EndChar

StartChar: diamond
Encoding: 182 9830 182
Width: 780
Flags: W
HStem: 0 21G<345 435> 687 20G<345 435>
LayerCount: 2
Back
Fore
SplineSet
390 0 m 1
 300 126 200 245 90 354 c 1
 200 462 300 581 390 707 c 1
 480 581 580 462 690 354 c 1
 580 245 480 126 390 0 c 1
EndSplineSet
EndChar

StartChar: uni2661
Encoding: 183 9825 183
Width: 840
Flags: W
HStem: 0 21G<358.5 481.5> 687 20G<214 293.5 546.5 626>
VStem: 90 660<415.219 614.034>
LayerCount: 2
Back
Fore
SplineSet
420 0 m 1
 297 176 90 312 90 530 c 0
 90 627 166 707 262 707 c 0
 325 707 375 663 420 619 c 1
 465 663 515 707 578 707 c 0
 674 707 750 627 750 530 c 0
 750 312 543 176 420 0 c 1
EndSplineSet
EndChar

StartChar: heart
Encoding: 184 9829 184
Width: 840
Flags: W
HStem: 0 21G<358.5 481.5> 687 20G<214 293.5 546.5 626>
VStem: 90 660<415.219 614.034>
LayerCount: 2
Back
Fore
SplineSet
420 0 m 1
 297 176 90 312 90 530 c 0
 90 627 166 707 262 707 c 0
 325 707 375 663 420 619 c 1
 465 663 515 707 578 707 c 0
 674 707 750 627 750 530 c 0
 750 312 543 176 420 0 c 1
EndSplineSet
EndChar

StartChar: spade
Encoding: 185 9824 185
Width: 780
Flags: W
HStem: 0 21G<300 480> 687 20G<345.5 434.5>
VStem: 89 602<194.534 376.681>
LayerCount: 2
Back
Fore
SplineSet
552 117 m 0
 505 117 471 142 450 178 c 1
 480 0 l 1
 300 0 l 1
 330 178 l 1
 309 142 275 117 228 117 c 0
 148 117 89 193 89 284 c 0
 89 464 301 553 390 707 c 1
 479 553 691 464 691 284 c 0
 691 193 631 117 552 117 c 0
EndSplineSet
EndChar

StartChar: club
Encoding: 186 9827 186
Width: 840
Flags: W
HStem: 0 21G<330 510> 687 20G<398 442>
VStem: 90 660<216.294 375.497> 255 330<459.358 623.497>
LayerCount: 2
Back
Fore
SplineSet
255 129 m 0xd0
 165 129 90 205 90 294 c 0xe0
 90 338 107 380 138 411 c 0
 169 442 211 459 255 459 c 0
 263 459 270 458 278 457 c 1
 263 482 255 512 255 542 c 0
 255 586 272 628 303 659 c 0
 334 690 376 707 420 707 c 0
 464 707 506 690 537 659 c 0
 568 628 585 586 585 542 c 0
 585 512 577 482 562 457 c 1
 570 458 577 459 585 459 c 0xd0
 629 459 671 442 702 411 c 0
 733 380 750 338 750 294 c 0xe0
 750 205 675 129 585 129 c 0
 549 129 514 141 485 163 c 1
 510 0 l 1
 330 0 l 1
 355 163 l 1
 326 141 291 129 255 129 c 0xd0
EndSplineSet
EndChar

StartChar: uni2720
Encoding: 187 10016 187
Width: 930
Flags: W
HStem: 225 100<365 415 515 565>
VStem: 415 100<175 225 325 375>
LayerCount: 2
Back
Fore
SplineSet
653 650 m 1
 515 375 l 1
 515 325 l 1
 565 325 l 1
 840 463 l 1
 840 87 l 1
 565 225 l 1
 515 225 l 1
 515 175 l 1
 653 -100 l 1
 278 -100 l 1
 415 175 l 1
 415 225 l 1
 365 225 l 1
 90 87 l 1
 90 463 l 1
 365 325 l 1
 415 325 l 1
 415 375 l 1
 278 650 l 1
 653 650 l 1
EndSplineSet
EndChar

StartChar: uni2721
Encoding: 188 10017 188
Width: 930
Flags: W
HStem: 59 79<229 294 432 498 636 701> 412 79<229 294 432 498 636 701> 688 20G<453.479 476.521>
LayerCount: 2
Back
Fore
SplineSet
294 138 m 1
 261 194 l 1
 229 138 l 1
 294 138 l 1
669 194 m 1
 636 138 l 1
 701 138 l 1
 669 194 l 1
498 491 m 1
 465 548 l 1
 432 491 l 1
 498 491 l 1
622 275 m 1
 543 412 l 1
 387 412 l 1
 308 275 l 1
 387 138 l 1
 543 138 l 1
 622 275 l 1
669 356 m 1
 701 412 l 1
 636 412 l 1
 669 356 l 1
294 412 m 1
 229 412 l 1
 261 356 l 1
 294 412 l 1
465 -158 m 1
 340 59 l 1
 90 59 l 1
 215 275 l 1
 90 491 l 1
 340 491 l 1
 465 708 l 1
 590 491 l 1
 840 491 l 1
 715 275 l 1
 840 59 l 1
 590 59 l 1
 465 -158 l 1
465 2 m 1
 498 59 l 1
 432 59 l 1
 465 2 l 1
EndSplineSet
EndChar

StartChar: uni2314
Encoding: 189 8980 189
Width: 720
Flags: W
HStem: 439 100<249.719 470.281>
LayerCount: 2
Back
Fore
SplineSet
497 404 m 1
 455 428 407 439 360 439 c 0
 313 439 265 428 223 404 c 1
 360 158 l 1
 497 404 l 1
589 467 m 1
 633 442 l 1
 389 5 l 1
 331 5 l 1
 87 442 l 1
 131 467 l 1
 174 491 l 2
 232 523 296 539 360 539 c 0
 424 539 488 523 546 491 c 2
 589 467 l 1
EndSplineSet
EndChar

StartChar: universal
Encoding: 190 8704 190
Width: 780
Flags: W
HStem: 0 21G<293.173 486.856> 374 100<309 471> 687 20G<93 217.837 562.163 688>
LayerCount: 2
Back
Fore
SplineSet
471 374 m 1
 309 374 l 1
 390 99 l 1
 471 374 l 1
93 707 m 1
 212 707 l 1
 280 474 l 1
 500 474 l 1
 568 707 l 1
 688 707 l 1
 481 0 l 1
 299 0 l 1
 93 707 l 1
EndSplineSet
EndChar

StartChar: existential
Encoding: 191 8707 191
Width: 660
Flags: W
HStem: 0 100<90 445> 304 100<142 445> 607 100<90 445>
VStem: 445 125<100 304 404 607>
LayerCount: 2
Back
Fore
SplineSet
90 0 m 1
 90 100 l 1
 445 100 l 1
 445 304 l 1
 142 304 l 1
 142 404 l 1
 445 404 l 1
 445 607 l 1
 90 607 l 1
 90 707 l 1
 250 707 410 707 570 707 c 1
 570 0 l 1
 410 0 250 0 90 0 c 1
EndSplineSet
EndChar

StartChar: uni2204
Encoding: 192 8708 192
Width: 660
Flags: W
HStem: 0 100<90 158 278 445> 304 100<142 239 359 445> 607 100<90 320 440 445>
VStem: 445 125<100 304 404 607>
LayerCount: 2
Back
Fore
SplineSet
359 404 m 1
 445 404 l 1
 445 607 l 1
 413 607 l 1
 359 404 l 1
278 100 m 1
 445 100 l 1
 445 304 l 1
 332 304 l 1
 278 100 l 1
384 845 m 1
 471 822 l 1
 440 707 l 1
 483 707 527 707 570 707 c 1
 570 0 l 1
 464 0 357 0 251 0 c 1
 214 -138 l 1
 127 -115 l 1
 158 0 l 1
 90 0 l 1
 90 100 l 1
 185 100 l 1
 239 304 l 1
 142 304 l 1
 142 404 l 1
 266 404 l 1
 320 607 l 1
 90 607 l 1
 90 707 l 1
 347 707 l 1
 384 845 l 1
EndSplineSet
EndChar

StartChar: uni2132
Encoding: 193 8498 193
Width: 660
Flags: W
HStem: 0 100<90 445> 304 100<142 445> 687 20G<445 570>
VStem: 445 125<100 304 404 707>
LayerCount: 2
Back
Fore
SplineSet
90 0 m 1
 90 100 l 1
 445 100 l 1
 445 304 l 1
 142 304 l 1
 142 404 l 1
 445 404 l 1
 445 707 l 1
 570 707 l 1
 570 471 570 236 570 0 c 1
 410 0 250 0 90 0 c 1
EndSplineSet
EndChar

StartChar: uni2141
Encoding: 194 8513 194
Width: 780
Flags: W
HStem: -12 125<221.449 423.797> 246 100<215 330> 583 124<206.169 415.027>
VStem: 90 125<128.844 246> 565 125<254.357 443.175>
LayerCount: 2
Back
Fore
SplineSet
565 354 m 0
 565 482 451 583 311 583 c 0
 258 583 207 568 162 538 c 1
 90 640 l 1
 156 684 233 707 311 707 c 0
 520 707 690 550 690 354 c 0
 690 152 530 -12 330 -12 c 0
 244 -12 159 15 90 67 c 1
 90 346 l 1
 330 346 l 1
 330 246 l 1
 215 246 l 1
 215 137 l 1
 251 121 290 113 330 113 c 0
 461 113 565 221 565 354 c 0
EndSplineSet
EndChar

StartChar: uni2201
Encoding: 195 8705 195
Width: 600
Flags: W
HStem: 0 125<242.664 357.336> 582 125<242.664 357.336>
VStem: 90 125<155.976 551.024> 385 125<155.976 208 499 551.024>
LayerCount: 2
Back
Fore
SplineSet
510 499 m 1
 385 499 l 1
 385 545 347 582 300 582 c 0
 253 582 215 545 215 499 c 2
 215 208 l 2
 215 162 253 125 300 125 c 0
 347 125 385 162 385 208 c 1
 510 208 l 1
 510 93 416 0 300 0 c 0
 184 0 90 93 90 208 c 2
 90 499 l 2
 90 614 184 707 300 707 c 0
 416 707 510 614 510 499 c 1
EndSplineSet
EndChar

StartChar: uni266D
Encoding: 196 9837 196
Width: 580
Flags: W
HStem: 446 100<234.322 331.895> 734 20G<90 190>
VStem: 90 100<142 402.547 514 754> 357 133<284.523 421.159>
LayerCount: 2
Back
Fore
SplineSet
190 378 m 1
 190 142 l 1
 269 197 357 257 357 352 c 0
 357 400 333 446 290 446 c 0
 248 446 217 411 190 378 c 1
90 754 m 1
 190 754 l 1
 190 514 l 1
 220 534 253 546 290 546 c 0
 399 546 490 460 490 352 c 0
 490 230 258 67 90 -50 c 1
 90 754 l 1
EndSplineSet
EndChar

StartChar: uni266E
Encoding: 197 9838 197
Width: 580
Flags: W
HStem: -220 21G<390 490> 0 21G<90 165> 526 20G<415 490> 734 20G<90 190>
VStem: 90 100<177 316 466 754> 390 100<-220 80 230 369>
LayerCount: 2
Back
Fore
SplineSet
390 80 m 1
 90 0 l 1
 90 754 l 1
 190 754 l 1
 190 466 l 1
 490 546 l 1
 490 -220 l 1
 390 -220 l 1
 390 80 l 1
390 230 m 1
 390 369 l 1
 190 316 l 1
 190 177 l 1
 390 230 l 1
EndSplineSet
EndChar

StartChar: uni266F
Encoding: 198 9839 198
Width: 580
Flags: W
HStem: -220 21G<140 240> 0 21G<90 140> 526 20G<440 490> 734 20G<340 440>
VStem: 140 100<-220 13 190 302 479 681> 340 100<-147 67 244 356 533 754>
LayerCount: 2
Back
Fore
SplineSet
340 217 m 1
 340 356 l 1
 240 329 l 1
 240 190 l 1
 340 217 l 1
440 -147 m 1
 340 -147 l 1
 340 67 l 1
 240 40 l 1
 240 -220 l 1
 140 -220 l 1
 140 13 l 1
 90 0 l 1
 90 150 l 1
 140 163 l 1
 140 302 l 1
 90 289 l 1
 90 439 l 1
 140 452 l 1
 140 681 l 1
 240 681 l 1
 240 479 l 1
 340 506 l 1
 340 754 l 1
 440 754 l 1
 440 533 l 1
 490 546 l 1
 490 396 l 1
 440 383 l 1
 440 244 l 1
 490 257 l 1
 490 107 l 1
 440 94 l 1
 440 -147 l 1
EndSplineSet
EndChar

StartChar: aleph
Encoding: 199 8501 199
Width: 820
Flags: W
HStem: 0 21G<90 240> 689 20G<597 730>
VStem: 90 150<0 226.727> 597 133<548.272 705>
LayerCount: 2
Back
Fore
SplineSet
240 0 m 1
 90 0 l 1
 90 168 119 339 212 476 c 1
 161 538 118 605 90 681 c 1
 231 733 l 1
 283 590 387 480 489 368 c 1
 561 464 597 583 597 705 c 1
 730 709 l 1
 730 549 676 395 574 273 c 1
 638 197 696 117 730 23 c 1
 605 -23 l 1
 546 138 417 255 299 379 c 1
 241 268 240 130 240 0 c 1
EndSplineSet
EndChar

StartChar: uni2136
Encoding: 200 8502 200
Width: 820
Flags: W
HStem: 0 145<109 525 650 711> 562 145<169 497.3>
VStem: 525 125<145 531.959>
LayerCount: 2
Back
Fore
SplineSet
169 707 m 1
 401 707 l 2
 581 707 650 648 650 471 c 2
 650 145 l 1
 749 145 l 1
 711 0 l 1
 71 0 l 1
 109 145 l 1
 525 145 l 1
 525 471 l 2
 525 548 485 562 401 562 c 2
 131 562 l 1
 169 707 l 1
EndSplineSet
EndChar

StartChar: uni2137
Encoding: 201 8503 201
Width: 640
Flags: W
HStem: 0 131<102 238.116>
LayerCount: 2
Back
Fore
SplineSet
102 131 m 1
 148 131 l 2
 171 131 190 125 205 125 c 0
 216 125 224 128 231 140 c 2
 348 343 l 1
 344 386 340 429 334 471 c 0
 330 500 308 521 283 536 c 2
 168 602 l 1
 243 732 l 1
 358 666 l 2
 424 627 448 548 459 471 c 0
 482 312 487 148 550 0 c 1
 417 0 l 1
 393 57 378 117 368 178 c 1
 317 90 l 2
 283 30 239 0 148 0 c 2
 78 0 l 1
 102 131 l 1
EndSplineSet
EndChar

StartChar: uni2138
Encoding: 202 8504 202
Width: 760
Flags: W
HStem: 0 21G<429 554> 562 145<109 429 554 651>
VStem: 429 125<0 562>
LayerCount: 2
Back
Fore
SplineSet
109 707 m 1
 689 707 l 1
 651 562 l 1
 554 562 l 1
 554 0 l 1
 429 0 l 1
 429 562 l 1
 71 562 l 1
 109 707 l 1
EndSplineSet
EndChar

StartChar: weierstrass
Encoding: 203 8472 203
Width: 740
Flags: W
HStem: -220 100<92.5323 146.946> 0 100<357.554 495.443> 419 100<387.555 555.209> 526 20G<163.5 188.356>
VStem: -8 97<-117.042 11.4888> 564 138<246.522 407.458>
LayerCount: 2
Back
Fore
SplineSet
103 13 m 1
 97 -14 89 -48 89 -73 c 0
 89 -100 97 -120 124 -120 c 0
 139 -120 149 -101 151 -88 c 0
 153 -79 151 -70 148 -62 c 0
 139 -33 121 -10 103 13 c 1
283 -41 m 0
 283 -134 196 -220 103 -220 c 0
 26 -220 -8 -154 -8 -72 c 0
 -8 -49 -5 -24 0 0 c 0
 8 40 20 80 35 118 c 1
 26 144 23 173 23 202 c 0
 23 237 28 273 36 309 c 0
 48 366 67 423 99 477 c 0
 120 510 146 546 181 546 c 1
 213 459 l 1
 204 459 196 437 190 421 c 0
 181 395 174 368 168 342 c 1
 260 448 379 519 510 519 c 0
 622 519 702 434 702 318 c 0
 702 299 699 279 695 259 c 0
 681 192 642 126 586 76 c 0
 532 28 465 0 400 0 c 0
 374 0 349 4 325 11 c 1
 363 109 l 1
 381 103 401 100 421 100 c 0
 453 100 489 108 510 135 c 0
 522 150 536 217 545 259 c 0
 553 296 564 349 564 374 c 0
 564 378 564 382 563 384 c 0
 553 411 521 419 489 419 c 0
 351 419 233 312 161 172 c 1
 184 118 236 82 264 31 c 0
 276 10 283 -15 283 -41 c 0
EndSplineSet
EndChar
